<?xml version="1.0" encoding="UTF-8"?><svg id="a" xmlns="http://www.w3.org/2000/svg" viewBox="0 0 64 64"><defs><style>.c{fill:#25a8e0;}.d{fill:none;stroke:#25a8e0;stroke-linecap:round;stroke-linejoin:round;stroke-width:2px;}</style></defs><g id="b"><path class="d" d="M29.68,61.76H9c-3.96,0-7.17-3.21-7.19-7.17V9.42c0-3.97,3.22-7.18,7.19-7.19H53.37"/><path class="d" d="M60.55,9.42V54.56c0,3.97-3.22,7.19-7.19,7.2h-13.97"/><circle class="c" cx="60.63" cy="4.25" r="1.55"/><path class="d" d="M29.68,61.76v-19.39h-6.83v-9.22h6.83v-8.89c0-5.14,4.17-9.31,9.31-9.31h9.67v8.77h-7.08c-1.26,0-2.28,1.02-2.28,2.28,0,.02,0,.04,0,.06v7.05h9.31v9.31h-9.31v19.34"/></g></svg>