<svg xmlns="http://www.w3.org/2000/svg" viewBox="0 0 64 64"><g id="HOUSE-28" data-name="HOUSE"><path d="M63,51H60.12V26a1,1,0,0,0-1-1H51.39c-.18-7.08,1.45-5.93-5.81-6a1,1,0,0,0-1,1v5H31V17a1,1,0,0,0-.2-.61l-9.7-13a1,1,0,0,0-1.53,0l-9.7,13c-.46.3-.09,8.05-.2,8.61H4.85a1,1,0,0,0-1,1V51H1a1,1,0,0,0,0,2H63A1,1,0,0,0,63,51ZM51.39,32.75h6.79v4.5H51.39ZM58.18,27v4.25H51.39V27ZM24,51V38.75h5.09V51Zm7-18.25H44.61v4.5H31ZM44.61,27v4.25H31V27ZM20.36,5.64l8.73,11.7V37.25H23.27a.74.74,0,0,0-.72.75V51H16.48V27h2.91a1,1,0,0,0,0-2H16.48c0-.16.05-14,0-14.13Zm-5.81,7.8V25H11.64V17.34ZM5.82,27H9.7V51H5.82Zm5.82,0h2.91V51H11.64ZM31,38.75H44.61V51H31ZM46.55,26V21h2.9V51h-2.9Zm4.84,25V38.75h6.79V51Z"/><path d="M23.27,22.75h3.88a.74.74,0,0,0,.73-.75V18a.74.74,0,0,0-.73-.75H23.27a.74.74,0,0,0-.72.75v4A.74.74,0,0,0,23.27,22.75Zm.73-4h2.42v2.5H24Z"/></g></svg>