<?xml version="1.0" encoding="UTF-8"?><svg id="a" xmlns="http://www.w3.org/2000/svg" viewBox="0 0 64 64"><defs><style>.b{fill:#25a8e0;}.c{fill:none;stroke:#25a8e0;stroke-linecap:round;stroke-linejoin:round;stroke-width:2px;}</style></defs><path class="c" d="M61.56,9.42V54.58c0,3.96-3.21,7.17-7.17,7.19H10c-3.95-.02-7.16-3.22-7.17-7.17V9.42c0-3.96,3.21-7.17,7.17-7.19H54.39"/><circle class="b" cx="61.64" cy="4.25" r="1.55"/><circle class="b" cx="43.92" cy="21.13" r="1.55"/><path class="c" d="M20.23,13.87c-3.04,.23-5.39,2.76-5.39,5.81v24.66c0,3.22,2.62,5.83,5.84,5.84h13.34"/><path class="c" d="M34.02,50.17h11.32c3.22,0,5.83-2.62,5.84-5.84V19.67c0-3.22-2.62-5.83-5.84-5.84H20.68c-.15-.02-.3-.02-.45,0"/><path class="c" d="M36.11,23.83c-4.52-1.71-9.58,.56-11.29,5.08s.56,9.58,5.08,11.29c4.52,1.71,9.58-.56,11.29-5.08,.38-1,.57-2.06,.57-3.13"/></svg>