<?xml version="1.0" encoding="UTF-8" standalone="no"?> <svg width="64" height="64" viewBox="0 0 64 64" fill="none" xmlns="http://www.w3.org/2000/svg">
<path d="M60 59H5V32C5 31.7348 4.89464 31.4804 4.70711 31.2929C4.51957 31.1054 4.26522 31 4 31C3.73478 31 3.48043 31.1054 3.29289 31.2929C3.10536 31.4804 3 31.7348 3 32V60C3 60.2652 3.10536 60.5196 3.29289 60.7071C3.48043 60.8946 3.73478 61 4 61H60C60.2652 61 60.5196 60.8946 60.7071 60.7071C60.8946 60.5196 61 60.2652 61 60C61 59.7348 60.8946 59.4804 60.7071 59.2929C60.5196 59.1054 60.2652 59 60 59Z" fill="black"/>
<path d="M22.0801 56.7098C22.3453 56.7098 22.5996 56.6045 22.7872 56.4169C22.9747 56.2294 23.0801 55.975 23.0801 55.7098V41.8198C23.0801 41.5546 22.9747 41.3003 22.7872 41.1127C22.5996 40.9252 22.3453 40.8198 22.0801 40.8198H8.57007C8.30485 40.8198 8.0505 40.9252 7.86296 41.1127C7.67542 41.3003 7.57007 41.5546 7.57007 41.8198V55.7098C7.57007 55.975 7.67542 56.2294 7.86296 56.4169C8.0505 56.6045 8.30485 56.7098 8.57007 56.7098C8.83528 56.7098 9.08964 56.6045 9.27718 56.4169C9.46471 56.2294 9.57007 55.975 9.57007 55.7098V42.8198H21.0801V55.7098C21.0801 55.975 21.1854 56.2294 21.373 56.4169C21.5605 56.6045 21.8149 56.7098 22.0801 56.7098Z" fill="black"/>
<path d="M26.53 31.0498V55.7098C26.53 55.975 26.6354 56.2294 26.8229 56.4169C27.0105 56.6044 27.2648 56.7098 27.53 56.7098C27.7952 56.7098 28.0496 56.6044 28.2371 56.4169C28.4247 56.2294 28.53 55.975 28.53 55.7098V32.0498H40V55.7098C40 55.975 40.1054 56.2294 40.2929 56.4169C40.4805 56.6044 40.7348 56.7098 41 56.7098C41.2652 56.7098 41.5196 56.6044 41.7071 56.4169C41.8947 56.2294 42 55.975 42 55.7098V31.0498C42 30.7846 41.8947 30.5302 41.7071 30.3427C41.5196 30.1552 41.2652 30.0498 41 30.0498H27.53C27.2648 30.0498 27.0105 30.1552 26.8229 30.3427C26.6354 30.5302 26.53 30.7846 26.53 31.0498Z" fill="black"/>
<path d="M60 15.8599H46.5C46.2348 15.8599 45.9804 15.9652 45.7929 16.1528C45.6054 16.3403 45.5 16.5946 45.5 16.8599V55.7099C45.5 55.9751 45.6054 56.2294 45.7929 56.417C45.9804 56.6045 46.2348 56.7099 46.5 56.7099C46.7652 56.7099 47.0196 56.6045 47.2071 56.417C47.3946 56.2294 47.5 55.9751 47.5 55.7099V17.8599H59V55.7099C59 55.9751 59.1054 56.2294 59.2929 56.417C59.4804 56.6045 59.7348 56.7099 60 56.7099C60.2652 56.7099 60.5196 56.6045 60.7071 56.417C60.8946 56.2294 61 55.9751 61 55.7099V16.8599C61 16.5946 60.8946 16.3403 60.7071 16.1528C60.5196 15.9652 60.2652 15.8599 60 15.8599Z" fill="black"/>
<path d="M15.2301 17.2599H17.2901C17.507 17.2478 17.724 17.2794 17.9284 17.3528C18.1329 17.4263 18.3204 17.5401 18.4799 17.6875C18.6395 17.8349 18.7677 18.0129 18.8571 18.2109C18.9464 18.4088 18.9951 18.6228 19.0001 18.8399C19.0023 19.0593 18.957 19.2766 18.8672 19.4769C18.7774 19.6771 18.6454 19.8555 18.4801 19.9999C18.1581 20.3029 17.7323 20.4711 17.2901 20.4699H13.3901C13.1249 20.4699 12.8705 20.5753 12.683 20.7628C12.4955 20.9503 12.3901 21.2047 12.3901 21.4699C12.3901 21.7351 12.4955 21.9895 12.683 22.177C12.8705 22.3645 13.1249 22.4699 13.3901 22.4699H15.2601V24.4199C15.2601 24.6851 15.3655 24.9395 15.553 25.127C15.7405 25.3145 15.9949 25.4199 16.2601 25.4199C16.5253 25.4199 16.7797 25.3145 16.9672 25.127C17.1547 24.9395 17.2601 24.6851 17.2601 24.4199V22.4199C18.2167 22.4307 19.1407 22.0726 19.8401 21.4199C20.199 21.0916 20.4871 20.6934 20.6865 20.2497C20.886 19.806 20.9927 19.3263 21.0001 18.8399C20.9869 17.8806 20.5945 16.9656 19.9087 16.2948C19.2229 15.6239 18.2994 15.2519 17.3401 15.2599H15.2301C15.0173 15.2652 14.8056 15.2286 14.607 15.152C14.4084 15.0755 14.2269 14.9606 14.0727 14.8138C13.9186 14.6671 13.7948 14.4915 13.7086 14.2969C13.6223 14.1023 13.5753 13.8927 13.5701 13.6799C13.5611 13.2676 13.7157 12.8685 14.0001 12.5699C14.3221 12.2669 14.7479 12.0987 15.1901 12.0999H19.0901C19.3553 12.0999 19.6097 11.9945 19.7972 11.807C19.9847 11.6195 20.0901 11.3651 20.0901 11.0999C20.0901 10.8347 19.9847 10.5803 19.7972 10.3928C19.6097 10.2053 19.3553 10.0999 19.0901 10.0999H17.2601V8.1499C17.2601 7.88469 17.1547 7.63033 16.9672 7.4428C16.7797 7.25526 16.5253 7.1499 16.2601 7.1499C15.9949 7.1499 15.7405 7.25526 15.553 7.4428C15.3655 7.63033 15.2601 7.88469 15.2601 8.1499V10.0999C14.3029 10.086 13.3778 10.4445 12.6801 11.0999C12.3387 11.429 12.0671 11.8236 11.8816 12.26C11.696 12.6964 11.6003 13.1657 11.6001 13.6399C11.6027 14.6009 11.9864 15.5216 12.6668 16.2002C13.3473 16.8788 14.2691 17.2599 15.2301 17.2599V17.2599Z" fill="black"/>
<path d="M16.26 29.52C18.8826 29.52 21.4463 28.7423 23.6269 27.2853C25.8075 25.8283 27.507 23.7573 28.5106 21.3344C29.5143 18.9114 29.7769 16.2453 29.2652 13.6731C28.7536 11.1009 27.4907 8.73821 25.6362 6.88377C23.7818 5.02933 21.4191 3.76643 18.8469 3.25479C16.2747 2.74315 13.6086 3.00575 11.1856 4.00936C8.76267 5.01298 6.69174 6.71255 5.23471 8.89314C3.77769 11.0737 3 13.6374 3 16.26C3.00529 19.7752 4.40402 23.1448 6.88961 25.6304C9.37519 28.116 12.7449 29.5147 16.26 29.52V29.52ZM16.26 5.00001C18.487 5.00001 20.664 5.66039 22.5157 6.89766C24.3674 8.13492 25.8106 9.89349 26.6629 11.951C27.5151 14.0085 27.7381 16.2725 27.3036 18.4567C26.8692 20.6409 25.7968 22.6473 24.222 24.222C22.6473 25.7968 20.6409 26.8692 18.4567 27.3036C16.2725 27.7381 14.0085 27.5151 11.951 26.6629C9.89349 25.8106 8.13492 24.3674 6.89765 22.5157C5.66039 20.664 5 18.487 5 16.26C5.00265 13.2745 6.18982 10.412 8.3009 8.30091C10.412 6.18982 13.2745 5.00265 16.26 5.00001V5.00001Z" fill="black"/>
<path d="M15.3201 56.71C15.5853 56.71 15.8396 56.6046 16.0272 56.4171C16.2147 56.2295 16.3201 55.9752 16.3201 55.71V50.13L18.0501 51.86C18.143 51.9537 18.2536 52.0281 18.3755 52.0789C18.4974 52.1296 18.6281 52.1558 18.7601 52.1558C18.8921 52.1558 19.0228 52.1296 19.1447 52.0789C19.2665 52.0281 19.3771 51.9537 19.4701 51.86C19.5628 51.7665 19.6361 51.6557 19.6859 51.5339C19.7356 51.412 19.7608 51.2816 19.7601 51.15C19.7608 51.0184 19.7356 50.8879 19.6859 50.7661C19.6361 50.6442 19.5628 50.5334 19.4701 50.44L16.0001 47C15.8288 46.8291 15.6015 46.726 15.3601 46.71H15.2001C15.0046 46.7395 14.8212 46.8225 14.6701 46.95H14.6101L11.1801 50.38C10.9918 50.5683 10.886 50.8237 10.886 51.09C10.886 51.3563 10.9918 51.6117 11.1801 51.8C11.3684 51.9883 11.6238 52.0941 11.8901 52.0941C12.1564 52.0941 12.4118 51.9883 12.6001 51.8L14.3201 50.07V55.65C14.3119 55.7862 14.3317 55.9228 14.3783 56.0511C14.4248 56.1794 14.4972 56.2969 14.5909 56.3962C14.6846 56.4955 14.7976 56.5746 14.923 56.6285C15.0484 56.6825 15.1836 56.7102 15.3201 56.71V56.71Z" fill="black"/>
<path d="M34.2901 56.71C34.5553 56.71 34.8096 56.6046 34.9972 56.4171C35.1847 56.2295 35.2901 55.9752 35.2901 55.71V40.13L37 41.86C37.093 41.9537 37.2036 42.0281 37.3255 42.0789C37.4473 42.1296 37.578 42.1558 37.71 42.1558C37.8421 42.1558 37.9728 42.1296 38.0946 42.0789C38.2165 42.0281 38.3271 41.9537 38.42 41.86C38.5127 41.7665 38.5861 41.6557 38.6358 41.5339C38.6856 41.412 38.7108 41.2816 38.71 41.15C38.7108 41.0184 38.6856 40.8879 38.6358 40.7661C38.5861 40.6442 38.5127 40.5334 38.42 40.44L35 37C34.8328 36.8233 34.6031 36.7192 34.3601 36.71H34.17C33.9746 36.7395 33.7912 36.8225 33.64 36.95H33.5801L30.15 40.38C29.9617 40.5683 29.856 40.8237 29.856 41.09C29.856 41.3563 29.9617 41.6117 30.15 41.8C30.3384 41.9883 30.5937 42.0941 30.8601 42.0941C31.1264 42.0941 31.3817 41.9883 31.57 41.8L33.3 40.07V55.71C33.3 55.9735 33.404 56.2263 33.5894 56.4136C33.7748 56.6008 34.0266 56.7073 34.2901 56.71Z" fill="black"/>
<path d="M53.2501 56.71C53.5153 56.71 53.7696 56.6046 53.9572 56.4171C54.1447 56.2295 54.2501 55.9752 54.2501 55.71V27.13L56.0001 28.86C56.093 28.9537 56.2036 29.0281 56.3255 29.0789C56.4473 29.1296 56.5781 29.1558 56.7101 29.1558C56.8421 29.1558 56.9728 29.1296 57.0946 29.0789C57.2165 29.0281 57.3271 28.9537 57.4201 28.86C57.5127 28.7665 57.5861 28.6557 57.6358 28.5339C57.6856 28.412 57.7108 28.2816 57.7101 28.15C57.7108 28.0184 57.6856 27.8879 57.6358 27.7661C57.5861 27.6442 57.5127 27.5334 57.4201 27.44L54.0001 24C53.8329 23.8233 53.6031 23.7192 53.3601 23.71H53.1701C52.9746 23.7395 52.7912 23.8225 52.6401 23.95C52.6401 23.95 52.6401 23.95 52.5901 24L49.1601 27.43C49.0668 27.5225 48.9927 27.6326 48.942 27.7538C48.8913 27.875 48.865 28.005 48.8645 28.1364C48.8636 28.4018 48.9681 28.6567 49.1551 28.845C49.342 29.0333 49.5962 29.1396 49.8615 29.1405C50.1269 29.1415 50.3818 29.0369 50.5701 28.85L52.3001 27.12V55.71C52.2997 55.9667 52.3982 56.2138 52.5751 56.4C52.7519 56.5861 52.9936 56.6971 53.2501 56.71Z" fill="black"/>
</svg>
