<?xml version="1.0" encoding="UTF-8"?><svg id="a" xmlns="http://www.w3.org/2000/svg" viewBox="0 0 64 64"><defs><style>.b{fill:#25a8e0;}.c{fill:none;stroke:#25a8e0;stroke-linecap:round;stroke-linejoin:round;stroke-width:2px;}</style></defs><path class="c" d="M61.4,9.27V54.44c-.03,3.95-3.23,7.14-7.18,7.16H9.81c-3.96-.02-7.16-3.22-7.18-7.18V9.27c0-3.97,3.22-7.18,7.19-7.19H54.22"/><circle class="b" cx="61.47" cy="4.1" r="1.55"/><path class="c" d="M27.98,26h7.77v2.55h.16c.99-1.55,2.64-3.11,6.7-3.11,5.02,0,8.76,3.31,8.76,10.52v14.52h-7.61v-13.56c0-3.11-1.1-5.31-3.85-5.31-1.77,.01-3.33,1.17-3.85,2.86-.17,.62-.23,1.26-.17,1.9v14.14h-7.61v-18.41"/><polyline class="c" points="22.2 32.21 22.2 50.7 14.61 50.7 14.61 26 22.2 26"/><path class="c" d="M22.7,17.72c.02,2.38-1.9,4.32-4.27,4.33s-4.32-1.9-4.33-4.27c-.02-2.38,1.9-4.32,4.27-4.33h.03"/></svg>