<?xml version="1.0" encoding="UTF-8"?><svg id="Layer_2" xmlns="http://www.w3.org/2000/svg" viewBox="0 0 332.99 97.3"><defs><style>.cls-1{letter-spacing:.17em;}.cls-2{fill:#fff;}.cls-3,.cls-4{fill:#1d76bb;}.cls-5{fill:#28a8e0;}.cls-6{fill:#273d90;}.cls-4{font-family:Bicyclette-Bold, Bicyclette;font-size:19.23px;}.cls-7{letter-spacing:.16em;}.cls-8{letter-spacing:.16em;}.cls-9{letter-spacing:.16em;}.cls-10{letter-spacing:.16em;}.cls-11{letter-spacing:.16em;}.cls-12{letter-spacing:.16em;}.cls-13{letter-spacing:.16em;}.cls-14{letter-spacing:.16em;}.cls-15{letter-spacing:.16em;}.cls-16{letter-spacing:.16em;}.cls-17{letter-spacing:.16em;}.cls-18{letter-spacing:.16em;}.cls-19{letter-spacing:.16em;}</style></defs><g id="Layer_1-2"><path class="cls-2" d="M210.15,61.6l-4.86-7.13c-.67-1.01-1.54-1.93-1.54-1.93v-.1c3.85-1.35,6.5-4.28,6.5-8.67,0-6.31-5.01-10.11-12.04-10.11h-13.38c-.32,0-.58,.26-.58,.58v27.73c0,.32,.26,.58,.58,.58h5.39c.32,0,.58-.26,.58-.58v-8.47h0v-5.2h0v-9.15h6.98c3.61,0,5.92,1.78,5.92,4.62s-2.31,4.53-5.92,4.53h-.88v4.02c0,.77,.24,1.52,.67,2.14l5.31,7.6c.19,.29,.53,.48,.77,.48h6.4c.29,0,.39-.14,.39-.34,0-.1-.05-.29-.29-.63Z"/><path class="cls-2" d="M24.7,62.56l-14.73-15.02c-1.54-1.54-3.27-3.71-3.27-3.71h-.14v18.15c0,.29-.29,.58-.58,.58H.58c-.29,0-.58-.29-.58-.58v-27.73c0-.29,.29-.58,.58-.58H5.01l14.59,14.83c1.59,1.59,3.37,3.9,3.37,3.9h.19v-18.15c0-.29,.29-.58,.58-.58h5.39c.29,0,.58,.29,.58,.58v27.73c0,.29-.29,.58-.58,.58h-4.43Z"/><path class="cls-2" d="M79.74,48.12c0,9.05-7.27,14.92-15.94,14.92s-15.94-5.87-15.94-14.92,7.27-14.93,15.94-14.93,15.94,6.02,15.94,14.93Zm-25.32,0c0,5.83,4.29,9.44,9.39,9.44s9.39-3.61,9.39-9.44-4.28-9.44-9.39-9.44-9.39,3.61-9.39,9.44Z"/><path class="cls-2" d="M107.05,48.22c1.01,2.07,1.88,4.77,1.88,4.77h.29s.87-2.7,1.88-4.77l6.69-13.91c.29-.58,.43-.63,1.01-.63h5.78c.29,0,.39,.14,.39,.29s-.14,.43-.29,.72l-13.34,27.88h-4.53l-13.34-27.88c-.14-.29-.29-.58-.29-.72s.1-.29,.39-.29h5.78c.58,0,.72,.05,1.01,.63l6.69,13.91Z"/><path class="cls-2" d="M235.16,61.99c0,.29-.29,.58-.58,.58h-5.39c-.29,0-.58-.29-.58-.58v-27.73c0-.29,.29-.58,.58-.58h5.39c.29,0,.58,.29,.58,.58v27.73Z"/><path class="cls-2" d="M285.12,48.12c0,9.05-7.27,14.92-15.94,14.92s-15.94-5.87-15.94-14.92,7.27-14.93,15.94-14.93,15.94,6.02,15.94,14.93Zm-25.32,0c0,5.83,4.28,9.44,9.39,9.44s9.39-3.61,9.39-9.44-4.29-9.44-9.39-9.44-9.39,3.61-9.39,9.44Z"/><path class="cls-2" d="M327.98,62.56l-14.73-15.02c-1.54-1.54-3.27-3.71-3.27-3.71h-.14v18.15c0,.29-.29,.58-.58,.58h-5.39c-.29,0-.58-.29-.58-.58v-27.73c0-.29,.29-.58,.58-.58h4.43l14.59,14.83c1.59,1.59,3.37,3.9,3.37,3.9h.19v-18.15c0-.29,.29-.58,.58-.58h5.39c.29,0,.58,.29,.58,.58v27.73c0,.29-.29,.58-.58,.58h-4.43Z"/><path class="cls-2" d="M167.39,61.65l-13.58-27.97h-5.01l-13.58,27.97c-.1,.19-.19,.43-.19,.58s.1,.34,.39,.34h5.73c.58,0,.72-.05,1.01-.63l.49-1.03,6.49-13.79c1.01-2.07,2.02-5.15,2.02-5.15h.29s1.01,3.08,2.02,5.15l7.05,14.92,.02,.05c.24,.42,.41,.48,.93,.48h5.73c.29,0,.38-.19,.38-.34s-.1-.39-.19-.58Z"/><text class="cls-4" transform="translate(23.79 91.45)"><tspan class="cls-7" x="0" y="0">X</tspan><tspan class="cls-19" x="15.83" y="0">P</tspan><tspan class="cls-1" x="30.7" y="0">E</tspan><tspan class="cls-10" x="45.68" y="0">R</tspan><tspan class="cls-18" x="61.38" y="0">I</tspan><tspan class="cls-1" x="69.83" y="0">E</tspan><tspan class="cls-13" x="84.82" y="0">N</tspan><tspan class="cls-11" x="102.5" y="0">C</tspan><tspan class="cls-16" x="119.16" y="0">E </tspan><tspan class="cls-8" x="141.23" y="0">T</tspan><tspan class="cls-17" x="156.1" y="0">H</tspan><tspan class="cls-15" x="173.83" y="0">E </tspan><tspan class="cls-9" x="195.9" y="0">F</tspan><tspan class="cls-14" x="209.94" y="0">UT</tspan><tspan class="cls-12" x="242.2" y="0">U</tspan><tspan class="cls-10" x="259.57" y="0">R</tspan><tspan class="cls-15" x="275.26" y="0">E</tspan></text><path class="cls-3" d="M160.04,15.63l3.52-5.09c.16-.23-.02-.52-.32-.52h-23.86c-.3,0-.48,.29-.32,.52l3.52,5.09c.07,.1,.19,.16,.32,.16h16.83c.13,0,.25-.06,.32-.16Z"/><path class="cls-6" d="M135.97,5.77h30.67c.13,0,.25-.06,.32-.16,0,0,.67-.96,1.45-2.08,1.07-1.54-.16-3.53-2.17-3.53h-29.86c-2.01,0-3.24,1.99-2.17,3.53,.78,1.12,1.45,2.08,1.45,2.08,.07,.1,.19,.16,.32,.16Z"/><path class="cls-5" d="M153.12,25.65l3.52-5.09c.16-.23-.02-.52-.32-.52h-10.02c-.3,0-.48,.29-.32,.52l3.52,5.09c.07,.1,.19,.16,.32,.16h2.98c.13,0,.25-.06,.32-.16Z"/></g></svg>