<?xml version="1.0" encoding="UTF-8"?><svg id="a" xmlns="http://www.w3.org/2000/svg" viewBox="0 0 64 64"><defs><style>.b{fill:#25a8e0;}.c{fill:none;stroke:#25a8e0;stroke-linecap:round;stroke-linejoin:round;stroke-width:2px;}</style></defs><path class="c" d="M60.64,9.89V55.05c0,3.96-3.21,7.17-7.17,7.19H9.06c-3.96-.02-7.16-3.22-7.17-7.17V9.89c.02-3.96,3.22-7.16,7.17-7.17H53.46"/><circle class="b" cx="60.72" cy="4.72" r="1.55"/><path class="c" d="M21.43,20.53c-3.86,.57-6.74,3.86-6.79,7.77v9.32c.03,4.39,3.61,7.93,8,7.92h7.36"/><path class="c" d="M41.94,20.38H22.64c-.39,0-.78,.03-1.16,.11"/><path class="c" d="M29.95,45.53h11.99c4.37-.02,7.92-3.55,7.95-7.92v-9.32c0-1.97-.73-3.87-2.05-5.33"/><polyline class="c" points="33.15 30.25 37.84 32.96 33.15 35.66 28.46 38.38 28.46 32.96 28.46 27.55"/></svg>