<?xml version="1.0" standalone="no"?>
<!DOCTYPE svg PUBLIC "-//W3C//DTD SVG 1.1//EN" "http://www.w3.org/Graphics/SVG/1.1/DTD/svg11.dtd" >
<svg xmlns="http://www.w3.org/2000/svg" xmlns:xlink="http://www.w3.org/1999/xlink" version="1.1">
<metadata></metadata>
<defs>
<font id="bicycletteregular" horiz-adv-x="1024" >
<font-face units-per-em="2048" ascent="1475" descent="-573" />
<missing-glyph horiz-adv-x="450" />
<glyph horiz-adv-x="0" />
<glyph unicode="&#xd;" horiz-adv-x="681" />
<glyph unicode=" "  horiz-adv-x="450" />
<glyph unicode="&#x09;" horiz-adv-x="450" />
<glyph unicode="&#xa0;" horiz-adv-x="450" />
<glyph unicode="!" horiz-adv-x="446" d="M113 88q0 47 30 80q31 33 78 33t78 -33t31 -80t-31 -80q-31 -31 -78 -31t-78 31q-30 33 -30 80zM133 1030v137q0 25 12 43.5t41 18.5l74 -2q53 0 53 -62v-137q0 -84 -12 -243.5t-25 -276.5l-12 -119h-82q-49 453 -49 641z" />
<glyph unicode="&#x22;" horiz-adv-x="663" d="M90 1141v20q0 37 23 64q22 24 61 24h12q82 0 82 -86v-20q0 -43 -12 -129q-16 -117 -25 -150l-14 -63h-74q-53 248 -53 340zM385 1141v20q0 37 23 64q22 24 61 24h12q82 0 82 -86v-20q0 -43 -12 -129q-16 -117 -25 -150l-14 -63h-74q-53 248 -53 340z" />
<glyph unicode="#" horiz-adv-x="1327" d="M100 379v123h256l45 215h-301v110h328l76 355q4 10 18 22t25 13h110q10 0 19 -9q10 -10 10 -20q0 -8 -6 -35l-70 -326h213l76 355q4 10 19 22q16 12 24 13h111q10 0 18 -9q10 -10 10 -20q0 -8 -6 -35l-69 -326h225v-122h-252l-45 -216h297v-122h-324l-73 -344 q-2 -8 -19 -21q-16 -10 -24 -10h-111q-6 0 -18 8q-8 8 -9 23q0 12 11 55l61 295h-213l-74 -344q-2 -8 -18 -21q-12 -10 -25 -10h-110q-10 0 -18.5 8t-8.5 23q0 12 10 55l62 295h-230zM537 489h213l45 216h-213z" />
<glyph unicode="$" horiz-adv-x="1304" d="M102 373v20q0 23 25 23h127q29 0 29 -29q0 -174 188 -227v401q-369 31 -369 320q0 125 93 223q94 100 276 133v160h115v-146h30h35q43 0 56 -2v146h114v-158q182 -31 264 -129q84 -100 84 -242q0 -20 -30 -20h-121q-27 0 -31 35q-16 143 -166 190v-383q379 -37 379 -334 q0 -133 -92 -233q-92 -102 -287 -127v-156h-114v144h-41q-10 0 -80 4v-148h-115l-2 164q-176 33 -272 135q-94 100 -95 236zM279 878.5q0 -139.5 188 -161.5v354q-188 -53 -188 -192.5zM582 137q16 -2 82 -2h41v406l-123 10v-414zM582 709l123 -9v394h-27h-29v2 q-53 0 -67 -2v-385zM821 150q199 32 199 206l-2 -2q0 66 -43 115q-43 51 -154 66v-385z" />
<glyph unicode="%" horiz-adv-x="1523" d="M80 952q0 133 82 215t209 82t209 -82q84 -84 84 -215q0 -133 -82 -215t-209 -82t-209 82t-82 215h-2zM219 0l977 1300l96 -73l-977 -1301zM219 952.5q0 -75.5 43 -125t110.5 -49.5t110.5 49.5t43 125t-43 124.5t-110.5 49t-110.5 -49t-43 -124.5zM852 272q0 131 84 215 t209 84q127 0 209 -82q84 -84 84 -215q0 -133 -82 -215q-80 -80 -209 -79.5t-209 79.5q-82 82 -82 215zM991 272.5q0 -75.5 43 -125t110.5 -49.5t110.5 49.5t43 125t-43 124.5t-110.5 49t-110.5 -49t-43 -124.5z" />
<glyph unicode="&#x26;" horiz-adv-x="1406" d="M125 324q0 111 61 188q61 78 197 135q-168 150 -168 283q0 147 104.5 233t280.5 86q174 0 274 -94q102 -96 103 -223q0 -205 -256 -309l-45 -19l307 -260q59 115 59 283q0 28 29 28l127 -2q25 0 25 -22v-21q0 -221 -107 -383l232 -196q10 -10 10 -19q0 -12 -19 -12h-165 q-29 0 -46 14l-114 99q-160 -133 -412 -133q-236 0 -354 104q-123 109 -123 240zM301 322q0 -78 80 -133.5t221 -55.5q176 0 283 86l-371 313l-47 -20q-166 -74 -166 -190zM393 926q0 -51 35 -99q37 -49 111 -114l79 35q176 78 177 178q0 70 -53.5 117t-141.5 47 q-92 0 -147.5 -43t-55.5 -119z" />
<glyph unicode="'" horiz-adv-x="364" d="M90 1141v20q0 37 23 64q22 24 61 24h12q82 0 82 -86v-20q0 -43 -12 -129q-16 -117 -25 -150l-14 -63h-74q-53 248 -53 340z" />
<glyph unicode="(" horiz-adv-x="573" d="M98 547q0 225 47 391q47 164 111 250q63 84 166 168q33 27 61 26q14 0 35 -16q18 -14 19 -31q0 -10 -45 -61q-55 -66 -86 -111q-29 -43 -64 -129q-35 -84 -49 -203q-14 -112 -14 -284v-2q0 -168 12 -285q12 -113 47 -197q35 -82 63 -124q33 -49 86 -109q45 -47 45 -61 t-18 -31q-20 -16 -33 -17q-29 0 -61 27q-72 57 -125 121q-45 55 -98 149q-49 92 -74 223.5t-25 305.5z" />
<glyph unicode=")" horiz-adv-x="573" d="M37 1333q0 14 18 31q20 16 35 16q29 0 62 -26q102 -84 165 -168q63 -86 111 -250q47 -166 47 -391q0 -172 -24.5 -303t-73.5 -224q-49 -88 -98 -147q-53 -63 -125 -121q-33 -27 -62 -26q-12 0 -33 16q-18 14 -18 31q0 14 45 61q53 59 86 109q29 43 64 125q35 84 47 196 q12 117 12 285v-2q0 172 -14 284q-14 121 -50 203q-35 86 -63 129q-31 47 -86 111q-45 51 -45 61z" />
<glyph unicode="*" horiz-adv-x="999" d="M68 918l4 10q25 63 112 35l68 -23l205 -86l10 6l-21 221v72q0 96 68 96h12q68 0 68 -96v-72l-16 -221l10 -6l205 86l67 23q88 29 113 -35l4 -10q27 -61 -72 -95l-67 -22l-215 -49l-5 -11l146 -168l41 -59q53 -76 0 -117l-10 -8q-53 -43 -111 37l-43 57l-115 191h-8 l-115 -191l-43 -57q-57 -80 -110 -37l-10 8q-53 41 0 117l41 59l145 168l-4 11l-215 49l-68 22q-98 33 -71 95z" />
<glyph unicode="+" d="M102 512v139h340v328h140v-328h340v-139h-340v-328h-140v328h-340z" />
<glyph unicode="," horiz-adv-x="446" d="M96 -178q2 10 6 12q66 25 93 55q29 33 28 86v5q-47 0 -78 30q-30 35 -30 80l4 -4q0 45 31 80q31 33 77 33q57 0 95 -41q37 -39 36 -121q0 -225 -184 -285q-23 -8 -41 -8q-10 0 -16 10l-21 53q-2 6 0 15z" />
<glyph unicode="-" horiz-adv-x="696" d="M92 410v139h512v-139h-512z" />
<glyph unicode="." horiz-adv-x="446" d="M113 90q0 45 30 80q31 33 78 33t78 -33q31 -35 31 -80t-31 -80q-31 -31 -78 -30.5t-78 30.5q-30 35 -30 80z" />
<glyph unicode="/" horiz-adv-x="882" d="M41 -203l647 1452h154l-647 -1452h-154z" />
<glyph unicode="0" horiz-adv-x="1269" d="M102 614.5q0 286.5 142 460.5q141 174 391 174t391 -174t141 -460.5t-141 -460.5q-139 -172 -391 -172t-391 172q-142 174 -142 460.5zM283 614.5q0 -219.5 92 -348.5t258 -129t258 129t92 348.5t-92 348.5t-258 129t-258 -129t-92 -348.5z" />
<glyph unicode="1" horiz-adv-x="806" d="M66 811q4 16 8 18l506 420h53l-6 -1218q0 -8 -10.5 -18.5t-18.5 -10.5h-119q-8 0 -18 10.5t-10 18.5v907l-5 2l-272 -225q-6 -6 -20.5 -6t-20.5 6l-63 76q-6 6 -4 20z" />
<glyph unicode="2" horiz-adv-x="1243" d="M100 129l590 385q227 150 228 330q0 115 -82 184q-84 72 -228 72q-305 0 -305 -297q0 -35 -31 -35h-120q-31 0 -31 20q0 213 119 338q121 127 368 127q236 0 363 -118q129 -119 129 -295q0 -131 -80 -242t-258 -227l-234 -152l-120 -55v-8h682q8 0 18 -10.5t10 -18.5v-98 q0 -10 -8 -19q-10 -10 -18 -10h-990z" />
<glyph unicode="3" horiz-adv-x="1222" d="M102 381q0 20 31 20h121q27 0 31 -34q10 -111 92 -172t237 -62q156 0 246 68t90 174q0 180 -233 180h-174v-6q-8 0 -19 10q-8 8 -8 19v98q0 8 10.5 18.5t18.5 10.5h98q248 0 248 178q0 94 -70 149q-72 55 -215 55q-270 0 -289 -215q-4 -35 -30 -34h-121q-31 0 -31 20 q0 168 121 276.5t350 108.5q238 0 350 -104q115 -104 115 -258q0 -156 -143 -236v-6q100 -31 151 -104q53 -76 54 -166q0 -170 -132 -283q-129 -111 -387 -111q-248 0 -378 113q-133 115 -134 293z" />
<glyph unicode="4" horiz-adv-x="1208" d="M61 274v119l732 836h165v-799h140q8 0 18 -10t10 -19v-98q0 -8 -10 -18.5t-18 -10.5h-144v-243q0 -8 -10 -18.5t-18 -10.5h-119q-8 0 -18.5 10.5t-10.5 18.5v243h-717zM258 426l2 -4q59 8 100 8h414v434l10 144l-8 2q-76 -109 -88 -121l-354 -404z" />
<glyph unicode="5" horiz-adv-x="1204" d="M100 324q0 14 10.5 24t24.5 10h111q29 0 37 -30q29 -92 116 -142q90 -49 201 -49q145 0 234 80q88 80 88 203q0 111 -74 178.5t-215 67.5q-178 0 -334 -107q-20 -14 -49 0l-129 76q-10 6 -10 22l73 572h783q8 0 18 -10.5t10 -18.5v-98q0 -10 -8 -19q-10 -10 -18 -10h-627 l-43 -338l4 -2q141 86 332 86q213 0 338 -106q127 -109 127 -291q0 -197 -139 -320q-135 -121 -363 -120q-174 0 -315 79q-147 84 -179 230q-4 29 -4 33z" />
<glyph unicode="6" horiz-adv-x="1234" d="M102 590q0 303 142 479q141 176 401 176q203 0 322 -96q115 -94 125 -246q0 -20 -31 -20h-121q-14 0 -20.5 6t-10.5 29q-16 78 -86 126q-70 49 -178 50q-346 0 -362 -461h6q47 63 141 104q98 41 213 41q238 0 363 -106q127 -109 127 -277q0 -182 -136 -299 q-133 -114 -364 -114v-5q-274 0 -402 164q-129 166 -129 449zM317 391q0 -109 84 -186q82 -76 234 -76q164 0 239 74q78 74 78 188q0 100 -80 164q-82 66 -229 66l4 -5q-152 0 -241 -65q-88 -63 -89 -160z" />
<glyph unicode="7" horiz-adv-x="1028" d="M41 1102v98q0 8 10 18.5t19 10.5h938v-6l-639 -1200q-12 -23 -47 -23h-146q-12 0 -12 12q0 8 6 19l563 1038v4h-663q-8 0 -18.5 10.5t-10.5 18.5z" />
<glyph unicode="8" horiz-adv-x="1228" d="M104 350q0 100 56 178q55 76 151 117v4q-76 39 -123 109q-45 66 -45 149q0 152 125 246q127 96 346 96h4q223 0 349 -96q123 -96 123 -246q0 -84 -46 -149q-47 -70 -122 -109v-4q207 -92 206 -295q0 -174 -139 -270q-137 -94 -372.5 -94t-372.5 94q-139 96 -140 270z M285 348q0 -98 86 -155q84 -57 247 -58q158 0 246 60q86 59 86 153l-2 -2q0 96 -86 157.5t-245.5 61.5t-245.5 -61.5t-86 -155.5zM328 905q0 -82 67.5 -137t220.5 -55q150 0 222 55q69 55 69 135v2q0 80 -69 135q-72 55 -222 56q-154 0 -221 -55.5t-67 -135.5z" />
<glyph unicode="9" horiz-adv-x="1234" d="M100 834q0 182 135.5 298.5t366.5 116.5l-6 -2q274 0 403 -166t129 -448q0 -305 -135 -479t-393 -174q-207 0 -328 96q-123 98 -131 248q0 20 31 20h121q14 0 20 -6t11 -29q14 -76 90 -125q74 -49 182 -49q334 0 350 461h-6q-47 -63 -141 -104q-98 -41 -211 -41 q-238 0 -363 106.5t-125 276.5zM274 827q0 -98 80 -161q78 -64 232 -64l-6 -2q152 0 241 66q88 63 88 159q0 109 -84 187q-82 76 -233 75q-162 0 -240 -73q-78 -74 -78 -187z" />
<glyph unicode=":" horiz-adv-x="446" d="M113 90q0 45 30 80q31 33 78 33t78 -33q31 -35 31 -80t-31 -80q-31 -31 -78 -30.5t-78 30.5q-30 35 -30 80zM113 688q0 45 30 80q31 33 78 33t78 -33q31 -35 31 -80t-31 -80q-31 -33 -78 -33t-78 33q-30 35 -30 80z" />
<glyph unicode=";" horiz-adv-x="446" d="M96 -178q2 10 6 12q66 25 93 55q29 33 28 86v5q-47 0 -78 30q-30 35 -30 80l4 -4q0 45 31 80q31 33 77 33q57 0 95 -41q37 -39 36 -121q0 -225 -184 -285q-23 -8 -41 -8q-10 0 -16 10l-21 53q-2 6 0 15zM117 684q0 47 32.5 80t79.5 33t80 -33t33 -80t-33 -80t-80 -33 t-79.5 33t-32.5 80z" />
<glyph unicode="&#x3c;" d="M141 496v49l690 438h52v-113l-547 -346v-6l547 -342v-115h-52z" />
<glyph unicode="=" d="M102 360v140h820v-140h-820zM102 664v139h820v-139h-820z" />
<glyph unicode="&#x3e;" d="M141 61v115l547 342v6l-547 346v113h52l690 -438v-49l-690 -435h-52z" />
<glyph unicode="?" horiz-adv-x="839" d="M61 958q0 131 92.5 211t247.5 80q162 0 260.5 -86t98.5 -229q0 -182 -205 -301l-29 -17q-57 -33 -57 -122v-101q0 -10 -12.5 -22.5t-20.5 -12.5h-110q-8 0 -20.5 12.5t-12.5 22.5v101q0 96 33 149q35 57 129 109l32 18q98 55 99 166q0 74 -45 117q-47 43 -131 43 q-74 0 -121 -39q-49 -41 -49 -99q0 -30 -33 -30h-113q-33 0 -33 30zM266 90q0 45 31 80q31 33 78 33t78 -33q31 -35 30.5 -80t-30.5 -80q-31 -31 -78 -30.5t-78 30.5q-31 35 -31 80z" />
<glyph unicode="@" horiz-adv-x="1763" d="M106 496q0 342 224 544q225 203 554.5 203t553.5 -186q225 -188 225 -469q0 -195 -111 -328q-111 -131 -297 -131q-182 0 -237 143h-6q-98 -123 -238 -122q-113 0 -190 77q-76 76 -76 201q0 174 110 301q111 127 281 127q131 0 193 -80h4l24 37q18 27 41 27h60 q25 0 24 -23q0 -10 -6 -31l-92 -370q-18 -74 18.5 -117t104.5 -43q121 0 194.5 98.5t73.5 237.5q0 231 -190 381q-193 152 -469 151q-281 0 -467.5 -168t-186.5 -454q0 -285 189 -455q190 -168 467 -168q270 0 510 96l39 -114q-250 -111 -547 -111q-330 0 -553 203 q-223 199 -224 543zM662 426q0 -70 36 -111q38 -41 93 -41h4q121 0 223 170l41 158q-12 57 -55 92q-45 35 -103 35q-104 0 -171.5 -92t-67.5 -211z" />
<glyph unicode="A" horiz-adv-x="1339" d="M25 14l10 25l602 1190h74l602 -1190l10 -25q0 -14 -18 -14h-134h-20q-6 0 -12.5 6.5t-14.5 20.5l-110 227h-682l-113 -227q-10 -18 -16 -23q-8 -4 -27 -4h-133q-18 0 -18 14zM412 410h526l-164 327q-8 14 -39 84q-18 43 -39 99l-16 43h-12q-52 -146 -93 -226z" />
<glyph unicode="B" horiz-adv-x="1306" d="M174 25v1179q0 10 8 18.5t19 8.5h575q199 0 307 -92q109 -92 109 -240q0 -154 -113 -240v-4q164 -96 164 -295q0 -176 -119 -268q-121 -92 -338 -92h-585q-12 0 -19 6q-8 8 -8 19zM356 154h426q283 0 283 206q0 205 -283 205h-426v-411zM356 721h457q115 0 158 47t43 129 q0 174 -242 174h-416v-350z" />
<glyph unicode="C" horiz-adv-x="1431" d="M100 614q0 289 183 461q180 172 460 172q274 0 430 -143t156 -326q0 -20 -31 -20l-124 -6q-16 0 -23 6q-4 4 -8 28q-8 129 -115 215q-104 86 -285 86q-203 0 -331.5 -129t-128.5 -350q0 -219 129 -348t331 -129q178 0 285 78q104 78 117 203q4 25 8 28q6 6 27 6h114 q33 0 33 -16q0 -190 -160 -321q-156 -129 -426 -129q-283 0 -460 170q-181 172 -181 464z" />
<glyph unicode="D" horiz-adv-x="1472" d="M176 25v1179q0 10 8.5 18.5t18.5 8.5h506q287 0 473 -168q188 -170 188 -449q0 -283 -174 -448q-176 -166 -485 -166h-508q-12 0 -19 6q-8 8 -8 19zM360 152h355q236 0 356 122q121 125 121 338t-135 336t-348 123l-349 -2v-917z" />
<glyph unicode="E" horiz-adv-x="1245" d="M174 23v1179q0 10 8 18.5t19 8.5h913q8 0 18.5 -10.5t10.5 -18.5v-98q0 -8 -10.5 -18.5t-18.5 -10.5h-758v-360h697q8 0 18 -10.5t10 -18.5v-98q0 -8 -10 -18.5t-18 -10.5l-697 -4v-401h779q8 0 18 -10.5t10 -18.5v-98q0 -8 -10 -19q-8 -8 -18 -8h-934q-8 0 -19 6 q-8 8 -8 19z" />
<glyph unicode="F" horiz-adv-x="1183" d="M176 25v1179q0 10 8.5 18.5t18.5 8.5h893q8 0 18 -10.5t10 -18.5v-98q0 -8 -10 -18.5t-18 -10.5h-738v-401h656q8 0 18 -10.5t10 -18.5v-98q0 -8 -10 -18.5t-18 -10.5h-656v-491q0 -10 -8 -18.5t-18 -8.5h-129q-12 0 -19 6q-8 8 -8 19z" />
<glyph unicode="G" horiz-adv-x="1472" d="M106 616q0 289 183 461q182 172 461 172q281 0 428 -141t153 -313q0 -18 -28 -19h-129q-23 0 -25 19q-16 121 -112.5 209t-291.5 88q-203 0 -331.5 -129t-128.5 -351q0 -219 129 -348t331 -129q207 0 320 94q115 96 115 222h-525q-8 0 -18 10t-10 18v99q0 8 10 18t18 10 h715v-71q0 -244 -160 -400q-155 -153 -458 -153h-4q-283 0 -461 170q-181 172 -181 464z" />
<glyph unicode="H" horiz-adv-x="1560" d="M168 25v1179q0 10 8 18.5t19 8.5h131q10 0 18 -8.5t8 -18.5v-549h848v549q0 10 8.5 18.5t18.5 8.5h131q10 0 18 -8.5t8 -18.5v-1179q0 -10 -8 -19q-6 -6 -18 -6h-131q-12 0 -19 6q-8 8 -8 19v475h-848v-475q0 -10 -8 -19q-6 -6 -18 -6h-131q-12 0 -19 6q-8 8 -8 19z" />
<glyph unicode="I" horiz-adv-x="532" d="M172 25v1179q0 10 8 18.5t19 8.5h131q10 0 18 -8.5t8 -18.5v-1179q0 -10 -8 -19q-6 -6 -18 -6h-131q-12 0 -19 6q-8 8 -8 19z" />
<glyph unicode="J" horiz-adv-x="1107" d="M20 311v54q0 8 10.5 18t18.5 10h123q8 0 18.5 -10t10.5 -18l8 -39q0 -80 70 -136q70 -55 190 -55q158 0 233 80q78 82 78 221v766q0 10 6 19q6 8 17 8h131q10 0 16 -8t6 -19v-766q0 -219 -124.5 -337.5t-368.5 -118.5q-211 0 -326 96q-117 98 -117 235z" />
<glyph unicode="K" horiz-adv-x="1357" d="M172 25v1179q0 10 8 18.5t19 8.5h131q10 0 18 -8.5t8 -18.5l-4 -618h4q37 45 62 65l643 559q20 18 49 19h180q12 0 13 -10q0 -6 -15 -19l-600 -522l637 -645q10 -10 10 -19q0 -14 -18 -14h-174q-27 0 -43 16l-541 547l-203 -178v-360q0 -10 -8 -19q-6 -6 -18 -6h-131 q-12 0 -19 6q-8 8 -8 19z" />
<glyph unicode="L" horiz-adv-x="1101" d="M172 25v1179q0 10 8 18.5t19 8.5h131q10 0 18 -8.5t8 -18.5l-2 -1050h676q8 0 18.5 -10.5t10.5 -18.5v-98q0 -8 -10 -19q-8 -8 -19 -8h-831q-12 0 -19 6q-8 8 -8 19z" />
<glyph unicode="M" horiz-adv-x="1740" d="M174 23v1179q0 10 8 18.5t19 8.5h84q25 0 39 -21l544 -774h4l545 774q14 21 39 21h92q10 0 18.5 -8.5t8.5 -18.5v-1179q0 -10 -8 -19q-10 -6 -19 -6h-131q-8 0 -18 6q-8 8 -8 19v886h-7q-29 -70 -73 -135l-437 -622l-436 622q-18 23 -39 62q-14 25 -26 55l-8 18h-7v-886 q0 -10 -8 -19q-10 -6 -18 -6h-131q-8 0 -19 6q-8 8 -8 19z" />
<glyph unicode="N" horiz-adv-x="1560" d="M174 23v1179q0 10 8 18.5t19 8.5h98l805 -823q27 -25 47 -54t31 -43l12 -16h8v913q0 10 8.5 18.5t18.5 8.5h131q10 0 18 -8t8 -19v-1179q0 -10 -8 -18.5t-18 -8.5h-96l-824 842q-14 14 -39 47q-16 23 -26 39l-10 12h-7v-917q0 -10 -8 -19q-10 -6 -18 -6h-131q-8 0 -19 6 q-8 8 -8 19z" />
<glyph unicode="O" horiz-adv-x="1531" d="M102 618q0 287 190 459t474 172v4q285 0 475.5 -172t190.5 -462.5t-191 -462.5q-188 -170 -475 -170q-285 0 -473 170q-191 172 -191 462zM283 623q0 -217 139 -351q137 -131 344 -131q205 0 344 129t139 348q0 221 -137 351q-139 129 -346 129v4q-205 0 -344 -129 t-139 -350z" />
<glyph unicode="P" horiz-adv-x="1265" d="M176 23v1179q0 10 8.5 18.5t18.5 8.5h504q223 0 360 -119q139 -121 139 -326q0 -203 -141 -321q-139 -119 -358 -119h-349v-317q0 -10 -8 -18.5t-18 -8.5l-129 -2q-10 0 -19 6q-8 8 -8 19zM356 496h344q143 0 233.5 77.5t90.5 208.5q0 133 -88 209q-91 78 -234 78l-346 2 v-575z" />
<glyph unicode="Q" horiz-adv-x="1531" d="M102 618q0 287 190 459q191 172 474 172l-4 6q285 0 475 -172t190 -462q0 -285 -188 -461l158 -199q8 -27 -6 -45l-93 -72q-20 -16 -43 6l-163 205q-143 -69 -321 -69h-5q-285 0 -473 170q-191 172 -191 462zM279 625q0 -217 139 -351q137 -131 344 -131q205 0 344 129 t139 349q0 221 -137 350t-346 129v4q-205 0 -344 -129t-139 -350z" />
<glyph unicode="R" horiz-adv-x="1327" d="M176 25v1177q0 10 8.5 18.5t18.5 8.5h524q225 0 363 -107q139 -109 139 -297q0 -145 -86 -239t-230 -131v-4q47 -45 78 -89l234 -323q14 -16 14 -27q0 -12 -16 -12h-168q-20 0 -29 14l-303 420h-363v-409q0 -10 -8 -19q-6 -6 -18 -6h-131q-12 0 -19 6q-8 9 -8 19z M356 573h365q143 0 233 66t90 182q0 121 -88 185q-91 65 -227 65h-8l-365 -4v-494z" />
<glyph unicode="S" horiz-adv-x="1294" d="M98 862q0 156 135.5 272.5t387.5 116.5q268 0 393 -106.5t125 -278.5q0 -20 -31 -20h-121q-27 0 -31 35q-10 92 -88 153q-80 61 -245 62q-154 0 -248 -66q-92 -63 -92 -166q0 -131 194 -147l336 -25q199 -14 289 -102q90 -86 90 -217q0 -147 -131 -271 q-128 -120 -389 -120h-4q-272 0 -418 108q-147 111 -148 281v20q0 23 25 23h121q29 0 28 -29q0 -250 386 -250q178 0 262 65.5t84 172.5q0 147 -209 164l-342 24q-358 25 -359 301z" />
<glyph unicode="T" horiz-adv-x="1290" d="M37 1102v98q0 8 10 18.5t19 10.5h1151q8 0 18 -10.5t10 -18.5v-98q0 -8 -10 -18.5t-18 -10.5h-486v-1048q0 -8 -6 -19q-4 -6 -16 -6h-131q-12 0 -17 6q-6 10 -6 19v1048h-485h-4q-8 0 -18.5 10.5t-10.5 18.5z" />
<glyph unicode="U" horiz-adv-x="1523" d="M154 571v631q0 10 8 18.5t18 8.5h131q10 0 18.5 -8.5t8.5 -18.5v-631q0 -217 110.5 -327.5t313.5 -110.5q205 0 315 111q111 110 111 321v8l-8 629q0 10 8 18.5t18 8.5h131q10 0 18.5 -8.5t8.5 -18.5v-631q0 -293 -162 -442t-444 -149q-281 0 -442.5 149.5t-161.5 441.5z " />
<glyph unicode="V" horiz-adv-x="1339" d="M16 1217q0 12 17 12h143h21q6 0 12 -6.5t14 -20.5l352 -710l84 -195h13q51 127 84 195l356 710q10 18 16 23q8 4 27 4h143q16 0 17 -12q0 -2 -10 -27l-603 -1190h-73l-602 1190q-10 25 -11 27z" />
<glyph unicode="W" horiz-adv-x="2097" d="M16 1212q0 12 17 13h143h17q6 0 10 -2q8 -4 10 -9q4 -8 6 -14l346 -711q14 -27 31 -71l27 -74l8 -31h8q29 96 55 160l326 754h57l326 -754l55 -160h8q35 119 64 179l346 710q10 20 14 23q8 4 27 4h143q16 0 17 -12q-1 -11 -9 -25l-585 -1194h-58l-364 838l-14 45h-5 q-6 -29 -14 -45l-364 -838h-58l-581 1190q-8 14 -9 24z" />
<glyph unicode="X" horiz-adv-x="1310" d="M31 10q0 10 8 19l496 608l-474 563q-8 8 -8 19q0 12 13 12h170q27 0 49 -25l383 -456h4q63 96 102 143l262 313q20 25 49 25h162q12 0 13 -12q-1 -11 -9 -19l-481 -577l500 -594q8 -8 8 -18.5t-12 -10.5h-168q-29 0 -49 23l-410 487h-4q-61 -98 -74 -115l-305 -372 q-20 -23 -49 -23h-164q-12 0 -12 10z" />
<glyph unicode="Y" horiz-adv-x="1282" d="M16 1217q0 12 13 12h155q31 0 49 -25l310 -403l88 -125h12q49 72 88 125l309 403q18 25 50 25h155q12 0 12 -12q0 -8 -8 -17l-522 -686v-489q0 -8 -6 -19q-4 -6 -16 -6h-132q-12 0 -16 6q-6 10 -6 19v489l-526 686q-8 8 -9 17z" />
<glyph unicode="Z" horiz-adv-x="1374" d="M57 6l815 971q18 25 48 49q25 23 36 31l13 10v6h-840q-8 0 -18.5 10.5t-10.5 18.5v98q0 8 10.5 18.5t18.5 10.5h1182v-4l-840 -998l-33 -32q-14 -14 -30 -27l-11 -8v-4h865q8 0 18 -10.5t10 -18.5v-98q0 -10 -8 -19q-10 -10 -18 -10h-1203z" />
<glyph unicode="[" horiz-adv-x="561" d="M176 -223v1616h344v-123h-205v-1370h205v-123h-344z" />
<glyph unicode="\" horiz-adv-x="880" d="M41 1249h152l647 -1452h-152z" />
<glyph unicode="]" horiz-adv-x="561" d="M41 -100h205v1370h-205v123h344v-1616h-344v123z" />
<glyph unicode="^" horiz-adv-x="1005" d="M76 614l368 615h117l369 -615h-166l-256 433h-10l-258 -433h-164z" />
<glyph unicode="_" d="M0 -141h1024v-82h-1024v82z" />
<glyph unicode="`" horiz-adv-x="593" d="M117 1300q-1 25 22 48l29 26q18 18 51 19q37 0 70 -45l207 -283q12 -16 12 -25q0 -14 -16 -14h-66q-16 0 -31 10l-243 203q-35 29 -35 61z" />
<glyph unicode="a" horiz-adv-x="1054" d="M104 229q0 106 84 172t265 66h309v33q0 102 -53 151t-197 49q-106 0 -154 -30q-45 -31 -45 -99v-6q0 -18 -34 -18h-111q-8 0 -20.5 12t-12.5 23v6q0 125 92 198.5t287 73.5q225 0 326 -100q102 -102 102 -277v-448q0 -10 -12 -22.5t-23 -12.5h-86q-16 0 -33 35l-26 61 l-6 -6l-31 -24q-111 -90 -305 -91q-154 0 -236 70q-80 70 -80 184zM283 227q0 -98 137 -98v2q98 0 190 31t152 78v90h-309q-170 0 -170 -103z" />
<glyph unicode="b" horiz-adv-x="1095" d="M123 35v1282q0 10 12 22.5t23 12.5h110q10 0 22.5 -12.5t12.5 -22.5l-4 -565h10l19 18q90 90 264 90q186 0 295 -123q106 -121 106 -319q0 -213 -123 -326q-118 -110 -294 -110h-3q-154 0 -258 84l-10 8h-4l-22 -41q-18 -33 -37 -33h-84q-10 0 -22.5 12.5t-12.5 22.5z M301 231q102 -96 258 -96q106 0 178 78t72 207h-2q0 129 -65.5 207t-172.5 78q-96 0 -168 -54q-70 -51 -100 -139v-281z" />
<glyph unicode="c" horiz-adv-x="1099" d="M100 420q0 208 131 323q133 117 332 117q170 0 283 -69q112 -70 147 -222l-4 -2q4 -29 4 -32q0 -14 -10 -24.5t-25 -10.5h-110q-29 0 -37 30l-8 29q-41 143 -246 143q-131 0 -204.5 -79.5t-73.5 -204.5q0 -131 81 -207q84 -78 222 -78q168 0 295 133q10 10 24 10 q16 0 23 -8l59 -65q10 -10 10 -23q0 -16 -12 -30q-145 -172 -401 -173q-211 0 -344 115q-136 118 -136 328z" />
<glyph unicode="d" horiz-adv-x="1095" d="M100 420q0 197 119 317q121 123 307 123q158 0 240 -69l14 -13h11v539q0 10 12 22.5t22 12.5h111q10 0 22.5 -12.5t12.5 -22.5v-1282q0 -10 -12.5 -22.5t-20.5 -12.5h-84q-20 0 -35 33l-26 63l-5 -2l-18 -18q-96 -96 -258 -96q-168 0 -289 114q-123 117 -123 326z M283 416q0 -129 71.5 -207t177.5 -78q139 0 261 119v291q-33 76 -100.5 118.5t-149.5 42.5q-113 0 -187 -77q-73 -76 -73 -207v-2z" />
<glyph unicode="e" horiz-adv-x="1105" d="M98 418q0 188 127 315q125 125 338 125q211 0 326 -110q113 -111 113 -255q0 -11 -1 -22l-6 -104h-710q12 -102 96 -168q82 -63 203 -64q170 0 276 98q20 20 39 20.5t33 -13.5l39 -43q14 -14 14 -33t-24 -43q-143 -141 -381 -141q-207 0 -342 114q-139 117 -140 324z M287 502h530q-16 200 -254 200q-109 0 -184 -51q-78 -53 -92 -149z" />
<glyph unicode="f" horiz-adv-x="688" d="M41 713v98q0 8 10.5 18.5t18.5 10.5l110 -4v196q0 166 98.5 252t245.5 86q98 0 185 -35q29 -12 28 -28q0 -6 -10 -31l-37 -72q-12 -23 -39 -10q-53 20 -121 20q-72 0 -121 -43t-49 -135v-196h279q8 0 18.5 -10.5t10.5 -18.5v-98q0 -8 -10.5 -18.5t-18.5 -10.5h-279v-649 q0 -10 -12 -22.5t-22 -12.5h-111q-10 0 -22.5 12.5t-12.5 22.5v649h-110q-8 0 -18.5 10.5t-10.5 18.5z" />
<glyph unicode="g" horiz-adv-x="985" d="M102 150q0 102 91 186q-62 81 -62 196h-2q0 141 94 234q96 92 260 92q158 0 254 -88h4l4 6q55 82 183 82q35 0 35 -20v-138q0 -8 -9 -14q-10 -6 -14 -6h-12h-23q-51 0 -86 -35q20 -59 21 -117q0 -141 -94.5 -233t-260.5 -92q-106 0 -182 39q-41 -47 -41 -92 q0 -82 117 -82h223q162 0 252 -78q90 -80 90 -197q0 -133 -104 -227q-106 -96 -316 -96h-8q-182 0 -295 84q-110 83 -110 198q0 113 92 205v8q-100 55 -101 185zM289 -223q0 -66 59 -109q57 -43 154 -43h22q115 0 178 47q61 47 62 115q0 53 -39 92q-41 41 -125 41h-223 l-12 -2q-76 -51 -76 -141zM289 530.5q0 -73.5 51 -122.5q53 -49 143 -50h2q89 0 142 50q51 49 51 122.5t-51 122.5q-53 49 -143.5 49t-143.5 -49q-51 -49 -51 -122.5z" />
<glyph unicode="h" horiz-adv-x="1064" d="M123 35v1282q0 10 12 22.5t23 12.5h110q10 0 22.5 -12.5t12.5 -22.5l-4 -596h8l8 10q41 53 117 90t166 37q348 0 348 -328v-497q0 -10 -12 -23q-10 -10 -21 -10h-110q-10 0 -21 10q-12 12 -12 23v497q0 80 -47 127.5t-129 47.5q-104 0 -182 -53.5t-109 -139.5v-477 q0 -10 -12 -22.5t-23 -12.5h-110q-10 0 -22.5 12.5t-12.5 22.5z" />
<glyph unicode="i" horiz-adv-x="425" d="M102 1139q0 47 33 79.5t80 32.5t80 -32.5t33 -79.5t-33 -80t-80 -33t-80 33t-33 80zM123 35v770q0 10 12 22.5t23 12.5h110q10 0 22.5 -12.5t12.5 -22.5v-770q0 -10 -12 -22.5t-23 -12.5h-110q-10 0 -22.5 12.5t-12.5 22.5z" />
<glyph unicode="j" horiz-adv-x="448" d="M-225 -422q0 8 6 14l67 80q18 23 39 2q53 -47 115 -47q63 0 104 43q39 41 39 115v1020q0 10 12.5 22.5t22.5 12.5h111q10 0 22.5 -12.5t12.5 -22.5l-4 -1018q0 -143 -80 -229t-232 -86q-139 0 -227 88q-8 8 -8 18zM121 1141q0 47 31 80t76 33h2q46 -1 77 -33 q31 -33 31 -80t-31 -80t-78 -33t-77 33q-31 33 -31 80z" />
<glyph unicode="k" horiz-adv-x="1021" d="M123 35v1282q0 10 12 22.5t23 12.5h110q10 0 22.5 -12.5t12.5 -22.5l2 -907h6l43 53l365 342q35 35 74 35h145q23 0 23 -19q0 -12 -11 -22l-346 -322l377 -438q10 -14 10 -21q0 -18 -30 -18h-119q-55 0 -92 43l-273 315l-174 -163v-160q0 -10 -12 -22.5t-23 -12.5h-110 q-10 0 -22.5 12.5t-12.5 22.5z" />
<glyph unicode="l" horiz-adv-x="425" d="M123 35v1282q0 10 12 22.5t23 12.5h110q10 0 22.5 -12.5t12.5 -22.5v-1282q0 -10 -12 -22.5t-23 -12.5h-110q-10 0 -22.5 12.5t-12.5 22.5z" />
<glyph unicode="m" horiz-adv-x="1558" d="M123 35l4 770q0 10 12.5 22.5t22.5 12.5h84q18 0 30 -33l29 -78h10l11 12q98 119 252 119q193 0 264 -147h6l24 28q100 119 275 119q139 0 219 -80t80 -227v-518q0 -10 -12.5 -22.5t-22.5 -12.5h-111q-10 0 -22 12.5t-12 22.5v518q0 152 -146 152q-82 0 -149.5 -55.5 t-98.5 -137.5v-477q0 -10 -12 -22.5t-20 -12.5h-111q-8 0 -20.5 12.5t-12.5 22.5v518q0 152 -145 152q-82 0 -149.5 -55.5t-98.5 -137.5v-477q0 -10 -12 -22.5t-23 -12.5h-110q-10 0 -22.5 12.5t-12.5 22.5z" />
<glyph unicode="n" horiz-adv-x="1064" d="M121 33v770q0 10 12 22.5t23 12.5h84q20 0 32 -35l29 -80h8l8 10q41 53 117 90q78 37 166 37q348 0 348 -328v-497q0 -10 -12 -22.5t-21 -12.5h-110q-8 0 -20.5 12.5t-12.5 22.5v497l-4 -4q0 80 -47 127t-129 47q-104 0 -182 -53t-109 -139v-477q0 -10 -12 -23 q-10 -10 -23 -10h-110q-12 0 -23 10q-12 12 -12 23z" />
<glyph unicode="o" horiz-adv-x="1126" d="M100 418q0 209 131 325q133 117 332 117h4q201 0 330 -116.5t129 -325.5t-131 -326q-129 -115 -332 -115t-332 115q-131 117 -131 326zM362 211q78 -78 205 -78q125 0 203 80q78 82 78 207l-4 -2q0 127 -76 205q-76 80 -201 80q-1 -1 -2 -1q-127 0 -203 -79 q-75 -77 -75 -202q0 -134 75 -210z" />
<glyph unicode="p" horiz-adv-x="1095" d="M121 -475v1280q0 10 12 22.5t23 12.5h84q23 0 36 -31l27 -57l8 -2l19 18q90 90 264 90q180 0 289 -123q108 -124 108 -314q0 -216 -123 -329q-118 -110 -294 -110h-3q-150 0 -239 69l-27 21h-4v-547q0 -10 -12.5 -22.5t-22.5 -12.5h-110q-10 0 -22.5 12.5t-12.5 22.5z M303 229q102 -96 258 -96q106 0 178 78t72 207q0 131 -68 207q-67 77 -169 77h-3q-96 0 -168 -53q-70 -51 -100 -139v-281z" />
<glyph unicode="q" horiz-adv-x="1095" d="M98 420q0 197 119 317q119 123 307 123q152 0 240 -69l18 -15h6l19 29q23 35 43 35h84q10 0 22.5 -12.5t12.5 -22.5v-1280q0 -10 -12.5 -22.5t-20.5 -12.5h-111q-8 0 -20 12.5t-12 22.5l-2 571h-11l-18 -20q-88 -96 -252 -96q-168 0 -289 114q-123 117 -123 326zM281 416 q0 -129 71.5 -207t177.5 -78q139 0 261 119v291q-33 76 -100.5 118.5t-149.5 42.5q-113 0 -187 -77q-73 -76 -73 -207v-2z" />
<glyph unicode="r" horiz-adv-x="894" d="M123 35v770q0 10 12 22.5t23 12.5h84q20 0 32 -35l29 -82v-2l14 16q109 121 258 121q270 0 271 -295v-20q0 -8 -12.5 -20.5t-20.5 -12.5h-111q-8 0 -20 12.5t-12 22.5v8q0 74 -33 113t-92 39q-78 0 -146 -56q-70 -57 -96 -137v-477q0 -10 -12 -22.5t-23 -12.5h-110 q-10 0 -22.5 12.5t-12.5 22.5z" />
<glyph unicode="s" horiz-adv-x="1003" d="M100 584q0 109 99 190q100 84 280 84q195 0 287 -73.5t92 -184.5q0 -25 -24 -25h-119q-33 0 -39 37q-14 88 -197 88q-106 0 -151 -36q-47 -37 -47 -82q0 -61 106 -74l197 -21q184 -18 250 -75q67 -58 67 -157q0 -112 -92 -194q-89 -81 -282 -81h-5q-213 0 -315 69 q-104 72 -105 201q0 31 33 31l109 -2q33 0 32 -31q0 -115 244 -115q199 0 199 119q0 72 -144 86l-200 20q-154 16 -213 70q-61 55 -62 156z" />
<glyph unicode="t" horiz-adv-x="739" d="M18 713v98q0 8 10.5 18.5t18.5 10.5h111v190q0 10 12 22.5t23 12.5h110q10 0 22.5 -12.5t12.5 -22.5v-190h278q8 0 18.5 -10.5t10.5 -18.5v-98q0 -8 -10 -18.5t-19 -10.5h-278v-389q0 -94 35 -129q33 -33 104 -33q55 0 133 47q29 16 43 -14l35 -68q8 -14 8 -24 q0 -18 -26 -33q-98 -59 -203 -59q-307 0 -307 313v389h-113q-8 0 -18.5 10.5t-10.5 18.5z" />
<glyph unicode="u" horiz-adv-x="1064" d="M113 346v457q0 10 12 22.5t22 12.5h111q10 0 22.5 -12.5t12.5 -22.5v-457q0 -102 45 -156q47 -55 135 -55q104 0 182 53.5t109 139.5v477q0 10 12 22.5t23 12.5h110q10 0 22.5 -12.5t12.5 -22.5v-770q0 -10 -12 -22.5t-23 -12.5h-84q-23 0 -37 37l-26 65l-6 -2l-11 -10 q-110 -110 -279 -110h-3q-180 0 -264 96q-86 98 -86 270z" />
<glyph unicode="v" horiz-adv-x="970" d="M31 825q0 14 18 15h135q31 0 43 -29l226 -457l28 -90h8q8 51 29 90l225 457q12 29 43 29h136q18 0 18 -15q0 -2 -10 -26l-391 -799h-107l-391 799q-10 25 -10 26z" />
<glyph unicode="w" horiz-adv-x="1374" d="M31 825q0 14 16 15h127q16 0 24.5 -4.5t16.5 -24.5l184 -412l25 -104h8q10 57 25 98l190 447h80l191 -447l26 -98h8q10 70 25 104l182 412q8 20 16.5 24.5t24.5 4.5h127q16 0 16 -15q0 -6 -4 -18l-354 -807h-70l-190 449l-35 108h-6q-18 -68 -35 -108l-190 -449h-70 l-354 807q-4 12 -4 18z" />
<glyph unicode="x" horiz-adv-x="962" d="M41 16q0 8 18 31l306 393l-287 355q-14 14 -15 28q0 16 19 17h143q33 0 51 -23l218 -270h4q25 47 59 92l135 178q18 23 51 23h144q18 0 18 -17q0 -8 -18 -30l-291 -369l307 -377q18 -23 19 -31q0 -16 -19 -16h-145q-33 0 -51 23l-242 299h-4q-27 -61 -60 -105l-147 -194 q-18 -23 -51 -23h-144q-18 0 -18 16z" />
<glyph unicode="y" horiz-adv-x="1003" d="M33 823q0 16 18 17h133q35 0 49 -27l261 -489l43 -107h4l241 596q12 27 43 27h131q16 0 17 -17q0 -8 -10 -35l-517 -1273q-10 -25 -45 -25h-131q-16 0 -16 16q0 8 10 35l193 473l-414 779q-10 18 -10 30z" />
<glyph unicode="z" horiz-adv-x="892" d="M35 0v2l436 596q10 12 37 39q20 23 37 31l12 10v4h-461q-8 0 -18 10q-8 8 -8 19v98q0 8 10 18.5t18 10.5h752v-7l-428 -581q-31 -41 -37 -47q-20 -23 -37 -31l-12 -12v-4h467q8 0 18 -10.5t10 -18.5v-98q0 -8 -10 -18.5t-18 -10.5h-768z" />
<glyph unicode="{" horiz-adv-x="624" d="M63 522v123h70q53 0 80 33q29 35 29 92q0 41 -37 160t-37 209q0 131 80 202q82 72 225 72q51 0 98 -8q20 -2 21 -25v-73q0 -8 -6 -14.5t-19 -4.5q-66 4 -90 4q-72 0 -110 -37q-39 -37 -39 -106q0 -41 34.5 -174t34.5 -197q0 -154 -104 -190v-8q104 -37 104 -191 q0 -72 -32.5 -196.5t-32.5 -174.5q0 -68 41 -104q41 -37 110 -37q25 0 90 4q12 2 18.5 -4t6.5 -14v-74q0 -23 -20 -25q-47 -8 -99 -8q-143 0 -225 72q-80 72 -80 201q0 90 37 208.5t37 159.5q0 59 -27 92t-80 33h-78z" />
<glyph unicode="|" horiz-adv-x="491" d="M176 -203v1555h139v-1555h-139z" />
<glyph unicode="}" horiz-adv-x="624" d="M18 -145q0 10 6.5 16t18.5 4q66 -4 90 -4q72 0 111 37q41 37 41 104q0 51 -33 176t-33 197q0 154 105 190v9q-104 37 -105 190q0 63 35 196.5t35 176.5q0 70 -39 106q-41 37 -111 37q-25 0 -90 -4q-12 -2 -18 4t-6 17v73q0 23 20 25q47 8 98 8q143 0 226 -72 q80 -72 80 -202q0 -90 -37 -209t-37 -160q0 -57 28 -92q27 -33 80 -33h70v-123l-78 -8q-53 0 -79.5 -32.5t-26.5 -92.5q0 -41 36.5 -159.5t36.5 -209.5q0 -129 -80 -200q-82 -72 -225 -72q-51 0 -98 8q-20 2 -21 25v74z" />
<glyph unicode="~" horiz-adv-x="1261" d="M70 385q0 188 77 301q78 111 222 111q82 0 157 -43q82 -45 127 -95q47 -49 111 -94q61 -43 115 -43q63 0 110 62q45 59 45 194h144q0 -193 -76 -301q-78 -111 -221 -110q-78 0 -154 43q-78 43 -127 96q-51 55 -111 96q-61 43 -114 43q-68 0 -111 -61.5t-43 -196.5z" />
<glyph unicode="&#xa1;" horiz-adv-x="446" d="M113 688q0 45 30 80q31 33 78 33t78 -33q31 -35 31 -80t-31 -80q-31 -33 -78 -33t-78 33q-30 35 -30 80zM131 -248q0 84 12.5 244t24.5 274l12 119h82q49 -453 49 -639v-137q0 -25 -12 -43.5t-39 -18.5l-76 3q-53 0 -53 61v137z" />
<glyph unicode="&#xa2;" horiz-adv-x="1099" d="M100 418q0 209 131 325q133 117 332 117h29h26l50 180l118 -30l-47 -174q217 -68 256 -265q4 -29 4 -32q0 -14 -10 -24.5t-24 -10.5h-111q-27 0 -37 31l-8 28q-23 76 -111 117l-145 -543h33q168 0 295 133q10 10 24 11q16 0 23 -9l59 -65q10 -10 10 -23q0 -16 -12 -30 q-145 -172 -401 -172q-8 0 -74 4l-49 -183l-119 31l45 174q-133 47 -209 150q-78 106 -78 260zM279 416q0 -182 149 -252l143 538h-12q-131 0 -204.5 -79.5t-73.5 -204.5z" />
<glyph unicode="&#xa3;" horiz-adv-x="1091" d="M82 96q0 14 14 23q53 39 109 61q68 129 67 275v8h-186l-2 125h158q-14 33 -53 90t-60 108q-23 55 -23 117q0 154 109 252t301 98q203 0 313.5 -104.5t110.5 -271.5q0 -29 -31 -29h-121q-31 0 -30 35q0 102 -61.5 157.5t-178.5 55.5q-109 0 -170 -55.5t-61 -141.5 q0 -61 63 -162q66 -102 80 -149h311v-123h-288v-8q0 -131 -66 -252v-4q74 -2 193 -35q113 -31 147 -31q76 0 102 27q29 29 29 88q0 31 33 31h102q33 0 33 -31q0 -268 -260 -268q-68 0 -197 34q-127 37 -190 37q-86 0 -201 -65q-12 -4 -18 -4q-14 0 -25 16l-47 78q-6 8 -6 18 z" />
<glyph unicode="&#xa4;" horiz-adv-x="1079" d="M100 266l138 135q-70 94 -70 215t70 215l-138 136l88 88l136 -140q94 70 213 70q115 0 215 -70l137 140l88 -88l-139 -138q70 -100 69 -215q0 -119 -69 -213l139 -137l-88 -88l-135 141q-94 -70 -215 -69q-121 0 -215 67l-136 -137zM293 614.5q0 -102.5 74 -172.5 q76 -72 174 -71.5t174 71.5q74 70 73.5 172.5t-73.5 171.5q-76 72 -174.5 72t-173.5 -72q-74 -69 -74 -171.5z" />
<glyph unicode="&#xa5;" horiz-adv-x="1282" d="M25 1217q0 12 12 12h156q31 0 49 -25l309 -403l88 -125h12q49 72 88 125l310 403q18 25 49 25h155q12 0 13 -12q0 -8 -9 -17l-372 -489l-60 -70v-6h271v-123h-361v-123h361v-123h-361v-235q0 -10 -12 -19q-14 -10 -21 -10h-118q-6 0 -21 10q-12 8 -12 19v235h-361v123 h361v123h-361l7 125h270v6q-41 41 -61 68l-373 489q-8 8 -8 17z" />
<glyph unicode="&#xa6;" horiz-adv-x="491" d="M176 -203v674h139v-674h-139zM176 676v676h139v-676h-139z" />
<glyph unicode="&#xa7;" d="M117 588v373q0 125 98 206q100 84 281 84q195 0 286.5 -73.5t91.5 -184.5q0 -25 -24 -24h-119q-33 0 -39 37q-14 88 -196 88q-199 0 -199 -136q0 -102 113 -122l194 -35q178 -31 240 -105q67 -80 67 -184l2 -358q0 -125 -94 -207q-96 -86 -284 -86q-207 0 -293 67.5 t-86 198.5q0 31 32 31h103q33 0 33 -31q0 -57 43 -86q41 -27 170 -27q199 0 198 138q0 96 -149 122l-199 35q-270 47 -270 279zM295 590q0 -109 113 -129l194 -37q90 -18 129 -31l2 2v121q0 113 -149 139l-199 35q-49 8 -88 23l-2 -2v-121z" />
<glyph unicode="&#xa8;" horiz-adv-x="856" d="M135 1139q0 47 33 79.5t80 32.5t79.5 -32.5t32.5 -79.5t-32.5 -80t-79.5 -33t-80 33t-33 80zM500 1139q0 47 32.5 79.5t79.5 32.5t80 -32.5t33 -79.5t-33 -80t-80 -33t-79.5 33t-32.5 80z" />
<glyph unicode="&#xa9;" horiz-adv-x="1351" d="M102 634.5q0 237.5 168 405.5t405.5 168t405.5 -168t168 -405.5t-168 -405.5t-405.5 -168t-405.5 168t-168 405.5zM209 633q0 -193 135 -328t329.5 -135t330 135t135.5 330q0 193 -135.5 328t-328 135t-327.5 -135t-135 -328zM393 631q0 127 80 196q78 70 199 70 q221 0 258 -174l-2 -6q4 -16 4 -21q0 -20 -23 -20h-65q-16 0 -19 18l-6 17q-31 86 -147 86q-76 0 -123 -47q-45 -45 -45 -123t49 -123q47 -45 131 -45q104 0 178 80q8 6 17 6q10 0 12 -6l37 -39q6 -6 6 -14.5t-8 -16.5q-90 -104 -242 -104q-127 0 -209 69.5t-82 196.5z" />
<glyph unicode="&#xaa;" horiz-adv-x="700" d="M55 768q0 72 58 117q59 47 178 47h196v12q0 119 -157 119q-125 0 -125 -74v-4q0 -12 -23 -12h-82q-6 0 -14 8t-8 14v4q0 78 65 127q66 49 191 50q145 0 215 -68t69 -180v-291q0 -6 -8 -14.5t-14 -8.5h-66q-16 0 -24 21l-14 35l-11 4l-22 -15q-90 -55 -193 -55 q-98 0 -155 47q-55 45 -56 117zM180 778q0 -25 24.5 -43t69.5 -18h-2q129 0 211 65v54h-200q-102 0 -103 -58z" />
<glyph unicode="&#xab;" horiz-adv-x="942" d="M82 451q0 18 31 55l280 338q12 20 31 20q16 0 25 -8l22 -16q16 -10 16 -25q0 -8 -12 -31l-184 -333l184 -334q12 -23 12 -31q0 -14 -16 -25l-22 -16q-8 -8 -25 -8q-18 0 -31 18l-280 338q-31 38 -31 58zM475 451q0 18 31 55l280 338q12 20 31 20q16 0 25 -8l22 -16 q16 -10 17 -25q0 -8 -13 -31l-184 -333l184 -334q12 -23 13 -31q0 -14 -17 -25l-22 -16q-8 -8 -25 -8q-18 0 -31 18l-280 338q-31 38 -31 58z" />
<glyph unicode="&#xac;" d="M102 573v140h820v-477h-140v337h-680z" />
<glyph unicode="&#xad;" horiz-adv-x="696" d="M92 410v139h512v-139h-512z" />
<glyph unicode="&#xae;" horiz-adv-x="1351" d="M102 634.5q0 237.5 168 405.5t405.5 168t405.5 -168t168 -405.5t-168 -405.5t-405.5 -168t-405.5 168t-168 405.5zM209 633q0 -193 135 -328t329.5 -135t330 135t135.5 330q0 193 -135.5 328t-328 135t-327.5 -135t-135 -328zM444 373v532h265q98 0 157 -51 q62 -51 62 -135h-2q0 -117 -135 -166v-6q20 -14 43 -43l102 -123v-8h-127l-133 162h-121v-162h-111zM555 627h139q121 0 121 92q0 94 -125 94h-135v-186z" />
<glyph unicode="&#xaf;" horiz-adv-x="716" d="M113 1106v123h491v-123h-491z" />
<glyph unicode="&#xb0;" horiz-adv-x="806" d="M96 938q0 129 90 219t215 90t215.5 -90t90.5 -219q0 -125 -91 -215q-88 -88 -215 -88q-125 0 -215 90t-90 215v-2zM225 936q0 -70 54 -123q51 -51 122.5 -51t122.5 51q53 53 54 123q0 72 -52 123q-53 53 -123 53q-72 0 -123 -51t-51 -123z" />
<glyph unicode="&#xb1;" d="M102 66v139h820v-139h-820zM102 594v139h340v328h140v-328h340v-139h-340v-328h-140v328h-340z" />
<glyph unicode="&#xb2;" horiz-adv-x="833" d="M78 946q0 139 80 221t256 82q154 0 246 -79.5t92 -186.5q0 -88 -52 -152q-53 -66 -178 -153l-106 -74l-56 -29v-6h383q6 0 12.5 -6t6.5 -12v-94q0 -6 -6 -12.5t-13 -6.5h-663l8 90l379 263q135 94 135 190q0 59 -49 98q-47 39 -137 39q-88 0 -135 -43t-48 -119 q0 -23 -18 -22h-117q-20 0 -20 12z" />
<glyph unicode="&#xb3;" horiz-adv-x="831" d="M61 684q0 14 21 14h117q16 0 20 -22q2 -57 53 -92q47 -33 140 -33q96 0 147 37q53 37 53 94q0 47 -39 74q-40 28 -110 28l-94 2q-6 0 -12.5 6.5t-6.5 12.5v92q0 6 6 12t13 6h63q141 0 141 101q0 102 -165 102q-156 0 -172 -108q0 -23 -19 -23h-119q-18 0 -18 12 q0 106 84 178t239 72q164 0 244 -67.5t80 -165.5t-94 -154v-4q61 -18 98 -67.5t37 -110.5q0 -106 -92 -184q-90 -76 -262 -76q-164 0 -258 74t-95 190z" />
<glyph unicode="&#xb4;" horiz-adv-x="962" d="M377 1040q0 8 12 25l207 283q33 45 70 45q26 -1 49 -19l30 -26q23 -18 23 -48q0 -33 -35 -61l-244 -203q-14 -10 -30 -10h-66q-16 0 -16 14z" />
<glyph unicode="&#xb5;" horiz-adv-x="1075" d="M123 -475v1280q0 10 12 22.5t23 12.5h110q10 0 22.5 -12.5t12.5 -22.5v-459q0 -102 45 -156q45 -55 135 -55q104 0 182 53.5t109 139.5v477q0 10 12.5 22.5t22.5 12.5h111q10 0 22 -12.5t12 -22.5v-770q0 -10 -12 -22.5t-20 -12.5h-84q-23 0 -37 37l-27 65h-10l-10 -10 q-111 -111 -283 -110q-80 0 -166 32l-2 -2v-487q0 -10 -12 -22.5t-23 -12.5h-110q-10 0 -22.5 12.5t-12.5 22.5z" />
<glyph unicode="&#xb6;" horiz-adv-x="1118" d="M61 860q0 172 109 270t283 99h604v-123h-144v-1227h-122l-3 1227h-204v-1227h-123v633h-49q-141 0 -246 98.5t-105 249.5z" />
<glyph unicode="&#xb7;" horiz-adv-x="491" d="M135 512q0 47 33 80t80 33t79.5 -33t32.5 -80t-32.5 -80t-79.5 -33t-80 33t-33 80z" />
<glyph unicode="&#xb8;" horiz-adv-x="626" d="M86 -401q0 4 4 24l14 49q2 18 31 13q78 -16 137 -17q98 0 99 58q0 27 -15 38q-16 12 -55 13h-131q-35 0 -31 35l25 188h125l-8 -119h61q76 0 115 -43q41 -45 41 -112q0 -78 -58 -123q-59 -47 -168 -47q-63 0 -159 20q-27 6 -27 23z" />
<glyph unicode="&#xb9;" horiz-adv-x="602" d="M66 952q-4 2 0 12.5t6 12.5l327 272h82l-6 -792q0 -4 -6 -10.5t-12 -6.5h-115q-6 0 -12 6.5t-6 10.5v553l-7 4l-161 -135q-14 -12 -27 0z" />
<glyph unicode="&#xba;" horiz-adv-x="733" d="M61 887q0 133 86 211q85 76 220 76h-5q135 0 220 -76q86 -78 86 -211t-86 -211q-84 -76 -217.5 -76t-217.5 76q-86 78 -86 211zM186 887q0 -76 49.5 -125t129.5 -49q78 0 127 49t49 125t-49.5 125t-126.5 49q-80 0 -129.5 -49t-49.5 -125z" />
<glyph unicode="&#xbb;" horiz-adv-x="942" d="M61 86q0 8 13 31l184 334l-184 333q-12 23 -13 31q0 14 17 25l22 16q8 8 25 8q18 0 31 -20l280 -338q31 -37 31 -55q0 -20 -31 -58l-280 -338q-12 -18 -31 -18q-16 0 -25 8l-22 16q-16 10 -17 25zM455 86q0 8 12 31l184 334l-184 333q-12 23 -12 31q0 14 16 25l23 16 q8 8 24 8q18 0 31 -20l280 -338q31 -37 31 -55q0 -20 -31 -58l-280 -338q-12 -18 -31 -18q-16 0 -24 8l-23 16q-16 10 -16 25z" />
<glyph unicode="&#xbc;" horiz-adv-x="1650" d="M59 952q-2 2 0 12.5t7 12.5l327 272h82l-6 -792q0 -4 -6 -10.5t-12 -6.5h-115q-6 0 -12.5 6.5t-6.5 10.5v553l-6 4l-161 -135q-14 -12 -27 0zM279 0l976 1303l97 -74l-977 -1301zM850 164v100l475 547h168v-516h104q6 0 12.5 -6t6.5 -13v-94q0 -6 -6.5 -12t-12.5 -6h-108 v-144q0 -6 -6 -12t-13 -6h-114q-6 0 -12.5 6t-6.5 12v144h-487zM1026 293l2 -4q57 6 80 6h223v231l8 119l-8 2q-55 -86 -67 -98l-172 -199z" />
<glyph unicode="&#xbd;" horiz-adv-x="1794" d="M74 948q-4 2 0 12.5t6 12.5l328 272h81l-6 -792q0 -4 -6 -10.5t-12 -6.5h-115q-6 0 -12 6.5t-6 10.5v553l-6 4l-162 -136q-14 -12 -27 0zM289 -2l977 1300l96 -73l-977 -1301zM1040 508q0 139 80 221t256 82q154 0 246 -80t92 -186q0 -88 -51 -152q-53 -66 -178 -153 l-107 -74l-55 -29v-6h383q6 0 12 -6t6 -12v-95q0 -6 -6 -12t-12 -6h-664l9 90l379 262q135 94 135 191q0 59 -49 98q-47 39 -138 39q-88 0 -135 -43t-47 -119q0 -23 -18 -22h-117q-20 0 -21 12z" />
<glyph unicode="&#xbe;" horiz-adv-x="1847" d="M61 684q0 14 21 14h117q16 0 20 -22q2 -57 53 -92q47 -33 140 -33q96 0 147 37q53 37 53 94q0 47 -39 74q-40 28 -110 28l-94 2q-6 0 -12.5 6.5t-6.5 12.5v92q0 6 6 12t13 6h63q141 0 141 101q0 102 -165 102q-156 0 -172 -108q0 -23 -19 -23h-119q-18 0 -18 12 q0 106 84 178t239 72q164 0 244 -67.5t80 -165.5t-94 -154v-4q61 -18 98 -67.5t37 -110.5q0 -106 -92 -184q-90 -76 -262 -76q-164 0 -258 74t-95 190zM465 2l977 1303l96 -74l-977 -1301zM1044 166v100l476 547h168v-516h104q6 0 12 -6t6 -12v-95q0 -6 -6 -12t-12 -6h-109 v-143q0 -6 -6 -12.5t-12 -6.5h-115q-6 0 -12 6t-6 13v143h-488zM1221 295l2 -4q60 6 80 6h223v231l8 119l-8 2q-55 -86 -68 -98l-172 -199z" />
<glyph unicode="&#xbf;" horiz-adv-x="839" d="M72 -154q0 180 204 299l29 17q57 33 57 123v100q0 10 12.5 22.5t22.5 12.5h111q10 0 22.5 -12.5t12.5 -22.5v-100q0 -96 -33 -150q-35 -57 -129 -108l-33 -19q-98 -53 -98 -164q0 -74 47 -116.5t133 -42.5q74 0 121 39q49 39 49 98q0 31 33 31h104q33 0 33 -31 q0 -131 -92 -211t-248 -80q-162 0 -260 86t-98 229zM348 688q0 45 31 80q31 33 78 33t78 -33q30 -35 30 -80t-30 -80q-31 -33 -78 -33t-78 33q-31 35 -31 80z" />
<glyph unicode="&#xc0;" horiz-adv-x="1409" d="M59 14l11 25l602 1190h73l603 -1190l10 -25q0 -14 -19 -14h-133h-20q-6 0 -12.5 6.5t-14.5 20.5l-112 227h-682l-113 -227q-10 -18 -16 -23q-8 -4 -25 -4h-133q-18 0 -19 14zM442 410h527l-164 327q-8 14 -39 84q-18 43 -39 99l-14 43h-13q-51 -146 -92 -226zM451 1612 q-1 24 22 47l29 27q18 18 51 18q37 0 70 -45l206 -283q12 -16 13 -24q0 -14 -17 -15h-65q-16 0 -31 11l-244 202q-35 29 -34 62z" />
<glyph unicode="&#xc1;" horiz-adv-x="1409" d="M59 14l11 25l602 1190h73l603 -1190l10 -25q0 -14 -19 -14h-133h-20q-6 0 -12.5 6.5t-14.5 20.5l-112 227h-682l-113 -227q-10 -18 -16 -23q-8 -4 -25 -4h-133q-18 0 -19 14zM442 410h527l-164 327q-8 14 -39 84q-18 43 -39 99l-14 43h-13q-51 -146 -92 -226zM575 1352 q0 8 13 24l207 283q33 45 69 45q29 0 49 -18l31 -27q23 -18 23 -47q0 -33 -35 -62l-244 -202q-14 -10 -31 -11h-65q-16 0 -17 15z" />
<glyph unicode="&#xc2;" horiz-adv-x="1409" d="M59 14l11 25l602 1190h73l603 -1190l10 -25q0 -14 -19 -14h-133h-20q-6 0 -12.5 6.5t-14.5 20.5l-112 227h-682l-113 -227q-10 -18 -16 -23q-8 -4 -25 -4h-133q-18 0 -19 14zM371 1389q0 10 18 28l240 232q40 41 71 41l9 2q31 0 71 -41l240 -232q18 -18 18 -28 q0 -16 -14 -25l-33 -20q-16 -10 -28 -11q-8 0 -43 25l-215 149l-216 -149q-35 -25 -43 -25q-12 0 -28 11l-33 20q-14 8 -14 23zM442 410h527l-164 327q-8 14 -39 84q-18 43 -39 99l-14 43h-13q-51 -146 -92 -226z" />
<glyph unicode="&#xc3;" horiz-adv-x="1409" d="M59 14l11 25l602 1190h73l603 -1190l10 -25q0 -14 -19 -14h-133h-20q-6 0 -12.5 6.5t-14.5 20.5l-112 227h-682l-113 -227q-10 -18 -16 -23q-8 -4 -25 -4h-133q-18 0 -19 14zM360 1362q0 254 193 254q76 0 135 -47l84 -68q55 -43 84 -43q74 0 74 131q0 27 31 27h61 q31 0 31 -27q0 -254 -193 -254q-76 0 -135 47l-84 68q-55 43 -84 43q-74 0 -74 -131q1 -27 -30 -27h-62q-31 0 -31 27zM442 410h527l-164 327q-8 14 -39 84q-18 43 -39 99l-14 43h-13q-51 -146 -92 -226z" />
<glyph unicode="&#xc4;" horiz-adv-x="1409" d="M59 14l11 25l602 1190h73l603 -1190l10 -25q0 -14 -19 -14h-133h-20q-6 0 -12.5 6.5t-14.5 20.5l-112 227h-682l-113 -227q-10 -18 -16 -23q-8 -4 -25 -4h-133q-18 0 -19 14zM414 1446q0 45 30 80q31 33 78 33t78 -33q31 -35 31 -80t-31 -80q-31 -33 -78 -33t-78 33 q-30 35 -30 80zM442 410h527l-164 327q-8 14 -39 84q-18 43 -39 99l-14 43h-13q-51 -146 -92 -226zM778 1446q0 45 31 80q31 33 78 33t78 -33q31 -35 30.5 -80t-30.5 -80q-31 -33 -78 -33t-78 33q-31 35 -31 80z" />
<glyph unicode="&#xc5;" horiz-adv-x="1409" d="M59 14l11 25l602 1190h73l603 -1190l10 -25q0 -14 -19 -14h-133h-20q-6 0 -12.5 6.5t-14.5 20.5l-112 227h-682l-113 -227q-10 -18 -16 -23q-8 -4 -25 -4h-133q-18 0 -19 14zM442 410h527l-164 327q-8 14 -39 84q-18 43 -39 99l-14 43h-13q-51 -146 -92 -226zM477 1524 q0 88 61.5 149.5t164 61.5t164 -61.5t61.5 -149.5t-61.5 -149.5t-162 -61.5t-162 61.5t-61.5 149.5h-4zM600 1522q0 -45 29 -74q27 -27 73 -27q45 0 74 29t29 74q0 43 -28.5 71.5t-74 28.5t-74 -28.5t-28.5 -71.5v-2z" />
<glyph unicode="&#xc6;" horiz-adv-x="1785" d="M20 14l11 25l631 1165q12 25 40 25h953q8 0 18 -10.5t10 -18.5v-98q0 -8 -10 -18.5t-18 -10.5h-697v-360h635q8 0 18.5 -10.5t10.5 -18.5v-98q0 -8 -10.5 -18.5t-18.5 -10.5l-632 -2v-401h716q8 0 18.5 -10.5t10.5 -18.5v-98q0 -8 -10 -19q-8 -8 -19 -8h-872q-12 0 -19 6 q-8 8 -8 19v229h-440l-123 -227q-10 -18 -16 -23q-8 -4 -27 -4h-133q-18 0 -19 14zM424 408h356v663h-16q-33 -96 -96 -215z" />
<glyph unicode="&#xc7;" horiz-adv-x="1431" d="M100.5 612.5q-0.5 290.5 182.5 462.5q180 172 460 172q274 0 430 -143t156 -326q0 -20 -31 -20l-124 -6q-16 0 -23 6q-4 4 -8 28q-8 129 -115 215q-104 86 -285 86q-203 0 -331.5 -129t-128.5 -350q0 -219 129 -348t331 -129q178 0 285 78q104 78 117 203q4 25 8 28 q6 6 27 6h114q33 0 33 -16q0 -190 -160 -321q-156 -129 -426 -129q-283 0 -460 170q-180 172 -180.5 462.5zM596 -408q0 5 4 25l14 49q4 18 31 12q78 -16 137 -16q98 0 99 57q0 27 -15 39q-14 12 -55 13h-131q-35 0 -31 34l25 189h125l-8 -119h61q74 0 115 -43 q41 -45 41 -113q0 -78 -58 -122q-59 -47 -168 -48q-63 0 -159 21q-27 6 -27 22z" />
<glyph unicode="&#xc8;" horiz-adv-x="1245" d="M174 23v1179q0 10 8 18.5t19 8.5h913q8 0 18.5 -10.5t10.5 -18.5v-98q0 -8 -10.5 -18.5t-18.5 -10.5h-758v-360h697q8 0 18 -10.5t10 -18.5v-98q0 -8 -10 -18.5t-18 -10.5l-697 -4v-401h779q8 0 18 -10.5t10 -18.5v-98q0 -8 -10 -19q-8 -8 -18 -8h-934q-8 0 -19 6 q-8 8 -8 19zM412 1610q-1 24 22 47l29 26q18 18 51 19q37 0 70 -45l207 -283q12 -14 12 -24q0 -14 -17 -15h-65q-16 0 -31 11l-244 202q-35 29 -34 62z" />
<glyph unicode="&#xc9;" horiz-adv-x="1245" d="M174 23v1179q0 10 8 18.5t19 8.5h913q8 0 18.5 -10.5t10.5 -18.5v-98q0 -8 -10.5 -18.5t-18.5 -10.5h-758v-360h697q8 0 18 -10.5t10 -18.5v-98q0 -8 -10 -18.5t-18 -10.5l-697 -4v-401h779q8 0 18 -10.5t10 -18.5v-98q0 -8 -10 -19q-8 -8 -18 -8h-934q-8 0 -19 6 q-8 8 -8 19zM475 1348q0 8 12 24l207 283q33 45 70 45q26 -1 49 -19l31 -26q23 -18 22 -47q0 -33 -35 -62l-243 -203q-14 -10 -31 -10h-65q-16 0 -17 15z" />
<glyph unicode="&#xca;" horiz-adv-x="1245" d="M174 23v1179q0 10 8 18.5t19 8.5h913q8 0 18.5 -10.5t10.5 -18.5v-98q0 -8 -10.5 -18.5t-18.5 -10.5h-758v-360h697q8 0 18 -10.5t10 -18.5v-98q0 -8 -10 -18.5t-18 -10.5l-697 -4v-401h779q8 0 18 -10.5t10 -18.5v-98q0 -8 -10 -19q-8 -8 -18 -8h-934q-8 0 -19 6 q-8 8 -8 19zM311 1364q0 10 19 29l239 231q41 41 72 41l8 2q31 0 72 -41l240 -231q18 -18 18 -29q0 -16 -14 -25l-33 -20q-16 -10 -29 -10q-10 0 -43 24l-215 150l-215 -150q-33 -25 -43 -24q-12 0 -29 10l-32 20q-14 8 -15 23z" />
<glyph unicode="&#xcb;" horiz-adv-x="1245" d="M174 23v1179q0 10 8 18.5t19 8.5h913q8 0 18.5 -10.5t10.5 -18.5v-98q0 -8 -10.5 -18.5t-18.5 -10.5h-758v-360h697q8 0 18 -10.5t10 -18.5v-98q0 -8 -10 -18.5t-18 -10.5l-697 -4v-401h779q8 0 18 -10.5t10 -18.5v-98q0 -8 -10 -19q-8 -8 -18 -8h-934q-8 0 -19 6 q-8 8 -8 19zM354 1442q0 45 31 80q31 33 78 32.5t78 -32.5q31 -35 30.5 -80t-30.5 -80q-31 -33 -78 -33t-78 33q-31 35 -31 80zM719 1442q0 45 31 80q31 33 77.5 32.5t77.5 -32.5q31 -35 31 -80t-31 -80q-31 -33 -78 -33t-77 33q-31 35 -31 80z" />
<glyph unicode="&#xcc;" horiz-adv-x="532" d="M-16 1612q0 22 20 47l29 27q18 18 51 18q37 0 70 -45l206 -283q12 -16 13 -24q0 -14 -17 -15h-65q-16 0 -31 11l-244 202q-33 29 -32 62zM172 25v1179q0 10 8 18.5t19 8.5h131q10 0 18 -8.5t8 -18.5v-1179q0 -10 -8 -19q-6 -6 -18 -6h-131q-12 0 -19 6q-8 8 -8 19z" />
<glyph unicode="&#xcd;" horiz-adv-x="532" d="M164 1352q0 8 12 24l207 283q33 45 70 45q26 0 49 -18l30 -27q23 -18 23 -47q0 -33 -35 -62l-244 -202q-14 -10 -30 -11h-66q-16 0 -16 15zM174 25v1179q0 10 8 18.5t19 8.5h131q10 0 18 -8.5t8 -18.5v-1179q0 -10 -8 -19q-6 -6 -18 -6h-131q-12 0 -19 6q-8 8 -8 19z" />
<glyph unicode="&#xce;" horiz-adv-x="532" d="M-68 1389q0 10 19 28l237 232q41 41 72 41l8 2q31 0 72 -41l240 -232q18 -18 18 -28q0 -16 -14 -25l-33 -20q-16 -10 -29 -11q-10 0 -43 25l-215 149l-215 -149q-33 -25 -43 -25t-26 11l-33 20q-14 8 -15 23zM168 27v1179q0 10 8 18.5t19 8.5h131q10 0 18 -8.5t8 -18.5 v-1179q0 -10 -8 -18.5t-18 -8.5h-131q-10 0 -18.5 8t-8.5 19z" />
<glyph unicode="&#xcf;" horiz-adv-x="532" d="M-25 1446q0 45 29 80q31 33 78 33t78 -33q31 -35 30.5 -80t-30.5 -80q-31 -33 -78 -33t-78 33q-29 35 -29 80zM172 25v1179q0 10 8 18.5t19 8.5h131q10 0 18 -8.5t8 -18.5v-1179q0 -10 -8 -19q-6 -6 -18 -6h-131q-12 0 -19 6q-8 8 -8 19zM338 1446q0 45 31 80 q31 33 78 33t77 -33q31 -35 31 -80t-31 -80q-31 -33 -78 -33t-77 33q-31 35 -31 80z" />
<glyph unicode="&#xd0;" horiz-adv-x="1472" d="M33 553v115h143v528q0 10 8.5 18.5t18.5 8.5h506q285 0 475 -166t190 -447q0 -293 -166 -452q-164 -158 -479 -158h-526q-12 0 -19 6q-8 8 -8 19v528h-143zM356 147h371q463 0 463 459q0 213 -137 336t-346 123h-351v-397h332v-123h-332v-398z" />
<glyph unicode="&#xd1;" horiz-adv-x="1560" d="M174 23v1179q0 10 8 18.5t19 8.5h98l805 -823q27 -25 47 -54t31 -43l12 -16h8v913q0 10 8.5 18.5t18.5 8.5h131q10 0 18 -8t8 -19v-1179q0 -10 -8 -18.5t-18 -8.5h-96l-824 842q-14 14 -39 47q-16 23 -26 39l-10 12h-7v-917q0 -10 -8 -19q-10 -6 -18 -6h-131q-8 0 -19 6 q-8 8 -8 19zM434 1360q0 254 193 254q76 0 135 -47l84 -68q55 -43 84 -43q74 0 74 131q0 27 30 27h62q31 0 30 -27q0 -254 -192 -254q-76 0 -135 47l-84 68q-55 43 -84 43q-74 0 -74 -131q0 -27 -31 -27h-61q-31 0 -31 27z" />
<glyph unicode="&#xd2;" horiz-adv-x="1531" d="M102.5 616.5q-0.5 288.5 190 460.5t473.5 172v4q285 0 475.5 -172t190.5 -462.5t-191 -462.5q-188 -170 -475 -170q-285 0 -473 170q-190 172 -190.5 460.5zM283 623q0 -217 139 -351q137 -131 344 -131q205 0 344 129t139 348q0 221 -137 351q-139 129 -346 129v4 q-205 0 -344 -129t-139 -350zM469 1620q0 24 23 47l28 27q18 18 51 18q37 0 70 -45l207 -283q12 -16 12 -24q0 -14 -16 -14h-66q-16 0 -30 10l-244 203q-35 29 -35 61z" />
<glyph unicode="&#xd3;" horiz-adv-x="1531" d="M102.5 616.5q-0.5 288.5 190 460.5t473.5 172v4q285 0 475.5 -172t190.5 -462.5t-191 -462.5q-188 -170 -475 -170q-285 0 -473 170q-190 172 -190.5 460.5zM283 623q0 -217 139 -351q137 -131 344 -131q205 0 344 129t139 348q0 221 -137 351q-139 129 -346 129v4 q-205 0 -344 -129t-139 -350zM614 1360q0 8 13 24l207 283q33 45 69 45q26 0 49 -18l31 -27q23 -18 23 -47q0 -33 -35 -61l-244 -203q-14 -10 -31 -10h-65q-16 0 -17 14z" />
<glyph unicode="&#xd4;" horiz-adv-x="1531" d="M102.5 616.5q-0.5 288.5 190 460.5t473.5 172v4q285 0 475.5 -172t190.5 -462.5t-191 -462.5q-188 -170 -475 -170q-285 0 -473 170q-190 172 -190.5 460.5zM283 623q0 -217 139 -351q137 -131 344 -131q205 0 344 129t139 348q0 221 -137 351q-139 129 -346 129v4 q-205 0 -344 -129t-139 -350zM430 1397q0 10 19 28l239 232q41 41 72 41l8 2q31 0 72 -41l239 -232q18 -18 19 -28q0 -16 -15 -25l-32 -20q-16 -10 -29 -11q-10 0 -43 25l-215 150l-215 -150q-33 -25 -43 -25q-12 0 -29 11l-33 20q-14 8 -14 23z" />
<glyph unicode="&#xd5;" horiz-adv-x="1531" d="M102.5 616.5q-0.5 288.5 190 460.5t473.5 172v4q285 0 475.5 -172t190.5 -462.5t-191 -462.5q-188 -170 -475 -170q-285 0 -473 170q-190 172 -190.5 460.5zM283 623q0 -217 139 -351q137 -131 344 -131q205 0 344 129t139 348q0 221 -137 351q-139 129 -346 129v4 q-205 0 -344 -129t-139 -350zM420 1362q0 254 192 254q76 0 136 -47l83 -68q55 -43 84 -43q74 0 74 131q0 27 31 27h61q31 0 31 -27q0 -254 -192 -254q-76 0 -136 47l-84 68q-55 43 -84 43q-74 0 -73 -131q0 -27 -31 -27h-61q-31 0 -31 27z" />
<glyph unicode="&#xd6;" horiz-adv-x="1531" d="M102.5 616.5q-0.5 288.5 190 460.5t473.5 172v4q285 0 475.5 -172t190.5 -462.5t-191 -462.5q-188 -170 -475 -170q-285 0 -473 170q-190 172 -190.5 460.5zM283 623q0 -217 139 -351q137 -131 344 -131q205 0 344 129t139 348q0 221 -137 351q-139 129 -346 129v4 q-205 0 -344 -129t-139 -350zM473 1454q0 45 31 80q31 33 78 33t77 -33q31 -35 31 -80t-31 -80q-31 -33 -77.5 -33t-77.5 33q-31 35 -31 80zM838 1454q0 45 30 80q31 33 78 33t78 -33q31 -35 31 -80t-31 -80q-31 -33 -78 -33t-78 33q-30 35 -30 80z" />
<glyph unicode="&#xd7;" d="M141 852l99 98l270 -272l272 272l99 -98l-273 -272l271 -269l-99 -98l-270 268l-268 -268l-99 98l269 269z" />
<glyph unicode="&#xd8;" horiz-adv-x="1531" d="M102 616q0 289 190.5 461t473.5 172l4 4q242 0 418 -129l129 129l86 -86l-125 -125q154 -170 154 -424q0 -291 -191 -462q-188 -170 -475 -170q-244 0 -420 125l-127 -125l-86 84l123 123q-154 168 -154 423zM287 616q0 -174 96 -301l688 691q-125 92 -301 92v-2 q-205 0 -344 -129t-139 -351zM471 231q125 -92 299 -92q205 0 344 129t139 348v2q0 182 -94 304z" />
<glyph unicode="&#xd9;" horiz-adv-x="1523" d="M154 571v631q0 10 8 18.5t18 8.5h131q10 0 18.5 -8.5t8.5 -18.5v-631q0 -217 110.5 -327.5t313.5 -110.5q205 0 315 111q113 112 111 329l-8 629q0 10 8 18.5t18 8.5h131q10 0 18.5 -8.5t8.5 -18.5v-631q0 -293 -162 -442t-444 -149q-281 0 -442.5 149.5t-161.5 441.5z M477 1610q0 24 23 47l28 26q18 18 52 19q37 0 69 -45l207 -283q12 -14 12 -24q0 -14 -16 -15h-66q-16 0 -30 11l-244 202q-35 29 -35 62z" />
<glyph unicode="&#xda;" horiz-adv-x="1523" d="M154 571v631q0 10 8 18.5t18 8.5h131q10 0 18.5 -8.5t8.5 -18.5v-631q0 -217 110.5 -327.5t313.5 -110.5q205 0 315 111q113 112 111 329l-8 629q0 10 8 18.5t18 8.5h131q10 0 18.5 -8.5t8.5 -18.5v-631q0 -293 -162 -442t-444 -149q-281 0 -442.5 149.5t-161.5 441.5z M643 1350q0 10 12 24l207 283q33 45 70 45q26 -1 49 -19l31 -26q23 -18 22 -47q0 -33 -35 -62l-243 -202q-14 -10 -31 -11h-66q-16 0 -16 15z" />
<glyph unicode="&#xdb;" horiz-adv-x="1523" d="M154 571v631q0 10 8 18.5t18 8.5h131q10 0 18.5 -8.5t8.5 -18.5v-631q0 -217 110.5 -327.5t313.5 -110.5q205 0 315 111q113 112 111 329l-8 629q0 10 8 18.5t18 8.5h131q10 0 18.5 -8.5t8.5 -18.5v-631q0 -293 -162 -442t-444 -149q-281 0 -442.5 149.5t-161.5 441.5z M418 1386q0 10 18 29l240 232q41 41 72 41l8 2q31 0 71 -41l240 -232q18 -18 18 -28q0 -16 -14 -25l-33 -21q-16 -10 -28 -10q-10 0 -43 25l-215 149l-215 -149q-33 -25 -43 -25q-12 0 -29 10l-33 21q-14 8 -14 22z" />
<glyph unicode="&#xdc;" horiz-adv-x="1523" d="M154 571v631q0 10 8 18.5t18 8.5h131q10 0 18.5 -8.5t8.5 -18.5v-631q0 -217 110.5 -327.5t313.5 -110.5q205 0 315 111q113 112 111 329l-8 629q0 10 8 18.5t18 8.5h131q10 0 18.5 -8.5t8.5 -18.5v-631q0 -293 -162 -442t-444 -149q-281 0 -442.5 149.5t-161.5 441.5z M461 1444q0 47 31 80t77.5 32.5t77.5 -32.5q31 -33 31 -80t-31 -80t-78 -33t-77 33q-31 33 -31 80zM825 1444q0 47 31 80t78 32.5t78 -32.5q31 -33 30.5 -80t-30.5 -80q-31 -33 -78 -33t-78 33t-31 80z" />
<glyph unicode="&#xdd;" horiz-adv-x="1282" d="M16 1217q0 12 13 12h155q31 0 49 -25l310 -403l88 -125h12q49 72 88 125l309 403q18 25 50 25h155q12 0 12 -12q0 -8 -8 -17l-522 -686v-489q0 -8 -6 -19q-4 -6 -16 -6h-132q-12 0 -16 6q-6 10 -6 19v489l-526 686q-8 8 -9 17zM545 1352q0 8 12 24l207 283q33 45 70 45 q31 0 51 -18l28 -27q23 -23 23 -47q0 -33 -35 -62l-244 -202q-14 -10 -30 -11h-66q-16 0 -16 15z" />
<glyph unicode="&#xde;" horiz-adv-x="1265" d="M172 25v1179q0 10 8 18.5t19 8.5h131q10 0 18 -8.5t8 -18.5l-2 -160h348q225 0 363 -112q139 -115 139 -313.5t-139 -309t-360 -110.5h-349v-174q0 -10 -8 -19q-6 -6 -18 -6h-131q-12 0 -19 6q-8 8 -8 19zM354 354h344q145 0 234 70q90 72 90 197q0 127 -88 196 q-91 72 -236 72h-344v-535z" />
<glyph unicode="&#xdf;" horiz-adv-x="1140" d="M121 27v940q0 188 102 295q100 104 264 104q180 0 275 -92q96 -92 96 -244q0 -72 -31 -131q-31 -57 -67.5 -88t-67 -67.5t-30.5 -69.5q0 -55 83 -86l58 -21q252 -88 252 -295q0 -111 -80 -202q-78 -90 -236 -90q-125 0 -235 77q-29 20 -6 49l49 70q20 25 43 8 q78 -59 141 -59q68 0 103 43q35 45 34 96q0 111 -120 152l-62 20q-119 41 -164 92q-47 53 -47 140q0 57 31 106t67 80q39 33 68 76q31 45 31 98q0 84 -45 131q-45 49 -138 49q-84 0 -137 -61q-51 -59 -51 -180v-940q0 -10 -12 -23q-14 -10 -23 -10h-110q-8 0 -23 10 q-12 12 -12 23z" />
<glyph unicode="&#xe0;" horiz-adv-x="1054" d="M104 229q0 106 84 172t265 66h309v33q0 102 -53 151t-197 49q-106 0 -154 -30q-45 -31 -45 -99v-6q0 -18 -34 -18h-111q-8 0 -20.5 12t-12.5 23v6q0 125 92 198.5t287 73.5q225 0 326 -100q102 -102 102 -277v-448q0 -10 -12 -22.5t-23 -12.5h-86q-16 0 -33 35l-26 61 l-6 -6l-31 -24q-111 -90 -305 -91q-154 0 -236 70q-80 70 -80 184zM283 227q0 -98 137 -98v2q98 0 190 31t152 78v90h-309q-170 0 -170 -103zM297 1296q-1 24 22 47l29 27q18 18 51 19q37 0 70 -46l207 -282q12 -16 12 -25q0 -14 -16 -14h-66q-16 0 -31 10l-243 203 q-35 29 -35 61z" />
<glyph unicode="&#xe1;" horiz-adv-x="1054" d="M104 229q0 106 84 172t265 66h309v33q0 102 -53 151t-197 49q-106 0 -154 -30q-45 -31 -45 -99v-6q0 -18 -34 -18h-111q-8 0 -20.5 12t-12.5 23v6q0 125 92 198.5t287 73.5q225 0 326 -100q102 -102 102 -277v-448q0 -10 -12 -22.5t-23 -12.5h-86q-16 0 -33 35l-26 61 l-6 -6l-31 -24q-111 -90 -305 -91q-154 0 -236 70q-80 70 -80 184zM283 227q0 -98 137 -98v2q98 0 190 31t152 78v90h-309q-170 0 -170 -103zM381 1036q0 8 12 25l207 282q33 45 70 46q26 -1 49 -19l31 -27q23 -18 22 -47q0 -33 -35 -61l-243 -203q-14 -10 -31 -10h-66 q-16 0 -16 14z" />
<glyph unicode="&#xe2;" horiz-adv-x="1054" d="M104 229q0 106 84 172t265 66h309v33q0 102 -53 151t-197 49q-106 0 -154 -30q-45 -31 -45 -99v-6q0 -18 -34 -18h-111q-8 0 -20.5 12t-12.5 23v6q0 125 92 198.5t287 73.5q225 0 326 -100q102 -102 102 -277v-448q0 -10 -12 -22.5t-23 -12.5h-86q-16 0 -33 35l-26 61 l-6 -6l-31 -24q-111 -90 -305 -91q-154 0 -236 70q-80 70 -80 184zM199 1077q0 10 18 29l240 231q40 41 71 41l9 2q31 0 71 -41l240 -231q18 -18 18 -29q0 -16 -14 -24l-33 -21q-16 -10 -28 -10q-8 0 -43 25l-216 149l-215 -149q-35 -25 -43 -25q-12 0 -28 10l-33 21 q-14 8 -14 22zM283 227q0 -98 137 -98v2q98 0 190 31t152 78v90h-309q-170 0 -170 -103z" />
<glyph unicode="&#xe3;" horiz-adv-x="1054" d="M104 229q0 106 84 172t265 66h309v33q0 102 -53 151t-197 49q-106 0 -154 -30q-45 -31 -45 -99v-6q0 -18 -34 -18h-111q-8 0 -20.5 12t-12.5 23v6q0 125 92 198.5t287 73.5q225 0 326 -100q102 -102 102 -277v-448q0 -10 -12 -22.5t-23 -12.5h-86q-16 0 -33 35l-26 61 l-6 -6l-31 -24q-111 -90 -305 -91q-154 0 -236 70q-80 70 -80 184zM182 1044q0 254 193 254q76 0 135 -47l84 -67q55 -43 84 -43q74 0 74 131q0 27 30 26h62q31 0 30 -26q0 -254 -192 -254q-76 0 -135 47l-84 68q-55 43 -84 43q-74 0 -74 -132q0 -26 -31 -26h-61 q-31 0 -31 26zM283 227q0 -98 137 -98v2q98 0 190 31t152 78v90h-309q-170 0 -170 -103z" />
<glyph unicode="&#xe4;" horiz-adv-x="1054" d="M104 229q0 106 84 172t265 66h309v33q0 102 -53 151t-197 49q-106 0 -154 -30q-45 -31 -45 -99v-6q0 -18 -34 -18h-111q-8 0 -20.5 12t-12.5 23v6q0 125 92 198.5t287 73.5q225 0 326 -100q102 -102 102 -277v-448q0 -10 -12 -22.5t-23 -12.5h-86q-16 0 -33 35l-26 61 l-6 -6l-31 -24q-111 -90 -305 -91q-154 0 -236 70q-80 70 -80 184zM233 1114q0 47 33 80t80 33t80 -33t33 -80t-33 -80t-80 -33t-80 33t-33 80zM283 227q0 -98 137 -98v2q98 0 190 31t152 78v90h-309q-170 0 -170 -103zM598 1114q0 47 33 80t80 33t79.5 -33t32.5 -80 t-32.5 -80t-79.5 -33t-80 33t-33 80z" />
<glyph unicode="&#xe5;" horiz-adv-x="1054" d="M104 229q0 106 84 172t265 66h309v33q0 102 -53 151t-197 49q-106 0 -154 -30q-45 -31 -45 -99v-6q0 -18 -34 -18h-111q-8 0 -20.5 12t-12.5 23v6q0 125 92 198.5t287 73.5q225 0 326 -100q102 -102 102 -277v-448q0 -10 -12 -22.5t-23 -12.5h-86q-16 0 -33 35l-26 61 l-6 -6l-31 -24q-111 -90 -305 -91q-154 0 -236 70q-80 70 -80 184zM283 227q0 -98 137 -98v2q98 0 190 31t152 78v90h-309q-170 0 -170 -103zM295 1249q0 88 61.5 149.5t164 61.5t163.5 -61.5t61 -149.5t-61 -149.5t-161.5 -61.5t-162 61.5t-61.5 149.5h-4zM418 1247 q0 -45 28 -73q27 -27 74 -27q45 0 74 28.5t29 73.5q0 43 -29 72t-74 29t-73.5 -29t-28.5 -72v-2z" />
<glyph unicode="&#xe6;" horiz-adv-x="1761" d="M102 238q0 111 84 178q84 68 265 67h309v17q0 102 -53 151q-51 49 -197 49q-109 0 -154 -30q-45 -31 -45 -99v-6q0 -18 -35 -18h-110q-8 0 -20.5 12t-12.5 23v6q0 125 92 198.5t287 73.5q248 0 356 -133h11q133 133 344 133t325 -110q121 -119 113 -277l-6 -121h-711 q18 -100 98 -157q82 -59 197 -60q170 0 277 98q20 20 38.5 20.5t32.5 -13.5l39 -45q14 -14 14 -33t-24 -43q-143 -141 -381 -142q-248 0 -381 154h-8q-16 -16 -53 -43q-84 -59 -162 -86q-80 -25 -193 -25q-160 0 -245 72q-90 74 -91 189zM279 238q0 -51 43 -78 q44 -29 114 -29v2q199 0 322 111l20 18q-14 31 -20 86h-309q-170 0 -170 -110zM942 483h531q-6 217 -254 217q-109 0 -189 -55t-88 -162z" />
<glyph unicode="&#xe7;" horiz-adv-x="1099" d="M100.5 418q-0.5 209 130.5 325q133 117 332 117q170 0 283 -69q112 -70 147 -222l-4 -2q4 -29 4 -32q0 -14 -10 -24.5t-25 -10.5h-110q-29 0 -37 30l-8 29q-41 143 -246 143q-131 0 -204.5 -79.5t-73.5 -204.5q0 -131 81 -207q84 -78 222 -78q168 0 295 133q10 10 24 10 q16 0 23 -8l59 -65q10 -10 10 -23q0 -16 -12 -30q-145 -172 -401 -173q-211 0 -344 115q-135 117 -135.5 326zM401 -403q1 4 5 24l14 49q2 18 31 13q78 -16 137 -17q98 0 98 58q0 27 -14 38q-16 12 -56 13h-131q-35 0 -30 35l24 188h125l-8 -119h61q76 0 115 -43 q41 -45 41 -112q0 -78 -57 -123q-59 -47 -168 -47q-63 0 -160 20q-27 6 -27 23z" />
<glyph unicode="&#xe8;" horiz-adv-x="1105" d="M98 418q0 188 127 315q125 125 338 125q211 0 326 -110q121 -119 112 -277l-6 -104h-710q12 -102 96 -168q82 -63 203 -64q170 0 276 98q20 20 39 20.5t33 -13.5l39 -43q14 -14 14 -33t-24 -43q-143 -141 -381 -141q-207 0 -342 114q-139 117 -140 324zM287 502h530 q-16 200 -254 200q-109 0 -184 -51q-78 -53 -92 -149zM340 1298q-1 25 22 48l29 26q18 18 51 19q37 0 70 -45l207 -283q12 -14 12 -25q0 -14 -16 -14h-66q-16 0 -31 10l-243 203q-35 29 -35 61z" />
<glyph unicode="&#xe9;" horiz-adv-x="1105" d="M98 418q0 188 127 315q125 125 338 125q211 0 326 -110q121 -119 112 -277l-6 -104h-710q12 -102 96 -168q82 -63 203 -64q170 0 276 98q20 20 39 20.5t33 -13.5l39 -43q14 -14 14 -33t-24 -43q-143 -141 -381 -141q-207 0 -342 114q-139 117 -140 324zM287 502h530 q-16 200 -254 200q-109 0 -184 -51q-78 -53 -92 -149zM397 1038q0 10 13 25l206 283q33 45 70 45q26 -1 49 -19l31 -26q23 -18 22 -48q0 -33 -34 -61l-244 -203q-14 -10 -31 -10h-65q-16 0 -17 14z" />
<glyph unicode="&#xea;" horiz-adv-x="1105" d="M98 418q0 188 127 315q125 125 338 125q211 0 326 -110q121 -119 112 -277l-6 -104h-710q12 -102 96 -168q82 -63 203 -64q170 0 276 98q20 20 39 20.5t33 -13.5l39 -43q14 -14 14 -33t-24 -43q-143 -141 -381 -141q-207 0 -342 114q-139 117 -140 324zM231 1079 q0 10 19 29l239 231q41 41 72 41l8 2q31 0 72 -41l240 -231q18 -18 18 -29q0 -16 -14 -24l-33 -21q-16 -10 -29 -10q-8 0 -43 25l-215 149l-215 -149q-35 -25 -43 -25q-12 0 -28 10l-33 21q-14 8 -15 22zM287 502h530q-16 200 -254 200q-109 0 -184 -51q-78 -53 -92 -149z " />
<glyph unicode="&#xeb;" horiz-adv-x="1105" d="M98 418q0 188 127 315q125 125 338 125q211 0 326 -110q121 -119 112 -277l-6 -104h-710q12 -102 96 -168q82 -63 203 -64q170 0 276 98q20 20 39 20.5t33 -13.5l39 -43q14 -14 14 -33t-24 -43q-143 -141 -381 -141q-207 0 -342 114q-139 117 -140 324zM272 1112 q0 47 31 80t78 33t78 -33t30.5 -80t-30.5 -80q-31 -33 -78 -33t-78 33t-31 80zM287 502h530q-16 200 -254 200q-109 0 -184 -51q-78 -53 -92 -149zM637 1112q0 47 31 80t78 33t77 -33q31 -33 31 -80t-31 -80t-78 -33t-77 33q-31 33 -31 80z" />
<glyph unicode="&#xec;" horiz-adv-x="425" d="M-55 1300q-1 25 22 48l29 26q16 18 49 19q37 0 70 -45l207 -283q12 -16 12 -25q0 -14 -17 -14h-65q-16 0 -31 10l-241 203q-35 29 -35 61zM123 35v770q0 10 12 22.5t23 12.5h110q10 0 22.5 -12.5t12.5 -22.5v-770q0 -10 -12 -22.5t-23 -12.5h-110q-10 0 -22.5 12.5 t-12.5 22.5z" />
<glyph unicode="&#xed;" horiz-adv-x="425" d="M115 1040q0 8 12 25l207 283q33 45 69 45q27 -1 50 -19l30 -26q23 -18 23 -48q0 -33 -35 -61l-244 -203q-14 -10 -30 -10h-66q-16 0 -16 14zM123 35v770q0 10 12 22.5t23 12.5h110q10 0 22.5 -12.5t12.5 -22.5v-770q0 -10 -12 -22.5t-23 -12.5h-110q-10 0 -22.5 12.5 t-12.5 22.5z" />
<glyph unicode="&#xee;" horiz-adv-x="425" d="M-141 1081q0 10 18 29l238 231q40 41 71 41l9 2q31 0 71 -41l240 -231q18 -18 18 -29q0 -16 -14 -24l-33 -21q-16 -10 -28 -10q-10 0 -43 25l-216 149l-213 -149q-35 -25 -43 -25q-12 0 -28 10l-33 21q-14 8 -14 22zM119 37v770q0 10 12 22.5t23 12.5h110 q10 0 22.5 -12.5t12.5 -22.5v-770q0 -10 -12.5 -22.5t-22.5 -12.5h-110q-10 0 -22.5 12.5t-12.5 22.5z" />
<glyph unicode="&#xef;" horiz-adv-x="425" d="M-68 1110q0 47 33 80t78 33q47 0 80 -33t33 -80t-33 -80t-80 -33q-45 0 -78 33t-33 80zM123 35v770q0 10 12 22.5t23 12.5h110q10 0 22.5 -12.5t12.5 -22.5v-770q0 -10 -12 -22.5t-23 -12.5h-110q-10 0 -22.5 12.5t-12.5 22.5zM295 1110q0 47 32.5 80t80 33t80 -33 t32.5 -80t-32.5 -80t-80 -33t-80 33t-32.5 80z" />
<glyph unicode="&#xf0;" horiz-adv-x="1126" d="M100 420q0 207 127 323q125 117 301 117q156 0 275 -84l6 4q-59 168 -246 299l-215 -151l-74 94l170 121q-100 49 -233 84q-20 6 -12 39l20 82q6 20 23 20q20 0 59 -10q145 -35 287 -117l182 129l70 -98l-146 -103q328 -260 328 -680q0 -227 -121 -370 q-119 -139 -338 -139q-203 0 -332 114q-131 117 -131 326zM279 418q0 -131 75 -207q78 -78 205 -78q137 0 209 92q72 95 72 189h2q0 141 -82 215q-84 74 -209 73q-121 0 -197 -79q-76 -78 -75 -205z" />
<glyph unicode="&#xf1;" horiz-adv-x="1064" d="M121 33v770q0 10 12 22.5t23 12.5h84q20 0 32 -35l29 -80h8l8 10q41 53 117 90q78 37 166 37q348 0 348 -328v-497q0 -10 -12 -22.5t-21 -12.5h-110q-8 0 -20.5 12.5t-12.5 22.5v497l-4 -4q0 80 -47 127t-129 47q-104 0 -182 -53t-109 -139v-477q0 -10 -12 -23 q-10 -10 -23 -10h-110q-12 0 -23 10q-12 12 -12 23zM190 1051q0 254 193 254q76 0 135 -48l84 -67q55 -43 84 -43q74 0 74 131q0 27 31 27h61q31 0 31 -27q0 -254 -193 -254q-76 0 -135 47l-84 68q-55 43 -84 43q-74 0 -74 -131q1 -27 -30 -27h-62q-31 0 -31 27z" />
<glyph unicode="&#xf2;" horiz-adv-x="1126" d="M100 418q0 209 131 325q133 117 332 117h4q201 0 330 -116.5t129 -325.5t-131 -326q-129 -115 -332 -115t-332 115q-131 117 -131 326zM283 1298q-1 25 22 48l29 26q18 18 51 19q37 0 70 -45l207 -283q12 -14 12 -25q0 -14 -17 -14h-65q-16 0 -31 10l-244 203 q-35 29 -34 61zM287 418q0 -131 75 -207q78 -78 205 -78q125 0 203 80q78 82 78 207l-4 -2q0 127 -76 205q-76 80 -203 79.5t-203 -79.5q-76 -78 -75 -205z" />
<glyph unicode="&#xf3;" horiz-adv-x="1126" d="M100 418q0 209 131 325q133 117 332 117h4q201 0 330 -116.5t129 -325.5t-131 -326q-129 -115 -332 -115t-332 115q-131 117 -131 326zM287 418q0 -131 75 -207q78 -78 205 -78q125 0 203 80q78 82 78 207l-4 -2q0 127 -76 205q-76 80 -203 79.5t-203 -79.5 q-76 -78 -75 -205zM418 1038q0 10 12 25l207 283q33 45 70 45q31 -1 51 -19l28 -26q23 -23 23 -48q0 -33 -35 -61l-244 -203q-14 -10 -30 -10h-66q-16 0 -16 14z" />
<glyph unicode="&#xf4;" horiz-adv-x="1126" d="M100 418q0 209 131 325q133 117 332 117h4q201 0 330 -116.5t129 -325.5t-131 -326q-129 -115 -332 -115t-332 115q-131 117 -131 326zM215 1079q0 10 18 29l240 231q41 41 72 41l8 2q31 0 72 -41l239 -231q18 -18 19 -29q0 -16 -15 -24l-32 -21q-16 -10 -29 -10 q-8 0 -43 25l-215 149l-215 -149q-35 -25 -43 -25q-12 0 -29 10l-33 21q-14 8 -14 22zM287 418q0 -131 75 -207q78 -78 205 -78q125 0 203 80q78 82 78 207l-4 -2q0 127 -76 205q-76 80 -203 79.5t-203 -79.5q-76 -78 -75 -205z" />
<glyph unicode="&#xf5;" horiz-adv-x="1126" d="M100 418q0 209 131 325q133 117 332 117h4q201 0 330 -116.5t129 -325.5t-131 -326q-129 -115 -332 -115t-332 115q-131 117 -131 326zM221 1049q0 254 193 254q76 0 135 -48l84 -67q55 -43 84 -43q74 0 74 131q0 27 30 27h62q31 0 30 -27q0 -254 -192 -254 q-76 0 -135 47l-84 68q-55 43 -84 43q-74 0 -74 -131q0 -27 -31 -27h-61q-31 0 -31 27zM287 418q0 -131 75 -207q78 -78 205 -78q125 0 203 80q78 82 78 207l-4 -2q0 127 -76 205q-76 80 -203 79.5t-203 -79.5q-76 -78 -75 -205z" />
<glyph unicode="&#xf6;" horiz-adv-x="1126" d="M100 418q0 209 131 325q133 117 332 117h4q201 0 330 -116.5t129 -325.5t-131 -326q-129 -115 -332 -115t-332 115q-131 117 -131 326zM270 1114q0 47 33 78t80 31t80 -31t33 -78t-33 -78t-80 -30.5t-80 30.5q-33 31 -33 78zM287 418q0 -131 75 -207q78 -78 205 -78 q125 0 203 80q78 82 78 207l-4 -2q0 127 -76 205q-76 80 -203 79.5t-203 -79.5q-76 -78 -75 -205zM635 1114q0 47 33 78t80 31t79 -31q33 -31 33 -78t-33 -78t-80 -30.5t-79 30.5q-33 31 -33 78z" />
<glyph unicode="&#xf7;" d="M102 512v139h820v-139h-820zM401 254q0 47 33 80t80 33t80 -33t33 -80t-33 -80t-80 -33t-80 33t-33 80zM401 909q0 47 33 80t80 33t80 -33t33 -80t-33 -79.5t-80 -32.5t-80 32.5t-33 79.5z" />
<glyph unicode="&#xf8;" horiz-adv-x="1126" d="M102 420q0 209 131 325q131 117 332 117q158 0 277 -76l76 76l86 -86l-72 -71q92 -115 92 -283q0 -209 -131 -326q-129 -115 -332 -114q-168 0 -276 73l-76 -73l-86 84l72 71q-92 113 -93 283zM281 420q0 -90 36 -158l400 400q-70 43 -156 43q-127 0 -203 -80 q-75 -78 -75 -205h-2zM403 174q66 -41 158 -41q127 0 203 80q78 82 78 207v-2q0 88 -41 153z" />
<glyph unicode="&#xf9;" horiz-adv-x="1064" d="M113 346v457q0 10 12 22.5t22 12.5h111q10 0 22.5 -12.5t12.5 -22.5v-457q0 -102 45 -156q47 -55 135 -55q104 0 182 53.5t109 139.5v477q0 10 12 22.5t23 12.5h110q10 0 22.5 -12.5t12.5 -22.5v-770q0 -10 -12 -22.5t-23 -12.5h-84q-23 0 -37 37l-26 65l-6 -2l-11 -10 q-111 -111 -282 -110q-180 0 -264 96q-86 98 -86 270zM244 1298q-1 25 22 48l29 26q18 18 51 19q37 0 70 -45l207 -283q12 -14 12 -25q0 -14 -17 -14h-65q-16 0 -31 10l-243 203q-35 29 -35 61z" />
<glyph unicode="&#xfa;" horiz-adv-x="1064" d="M113 346v457q0 10 12 22.5t22 12.5h111q10 0 22.5 -12.5t12.5 -22.5v-457q0 -102 45 -156q47 -55 135 -55q104 0 182 53.5t109 139.5v477q0 10 12 22.5t23 12.5h110q10 0 22.5 -12.5t12.5 -22.5v-770q0 -10 -12 -22.5t-23 -12.5h-84q-23 0 -37 37l-26 65l-6 -2l-11 -10 q-111 -111 -282 -110q-180 0 -264 96q-86 98 -86 270zM369 1038q0 10 12 25l207 283q33 45 69 45q32 -1 52 -19l28 -26q23 -23 23 -48q0 -33 -35 -61l-244 -203q-14 -10 -30 -10h-66q-16 0 -16 14z" />
<glyph unicode="&#xfb;" horiz-adv-x="1064" d="M113 346v457q0 10 12 22.5t22 12.5h111q10 0 22.5 -12.5t12.5 -22.5v-457q0 -102 45 -156q47 -55 135 -55q104 0 182 53.5t109 139.5v477q0 10 12 22.5t23 12.5h110q10 0 22.5 -12.5t12.5 -22.5v-770q0 -10 -12 -22.5t-23 -12.5h-84q-23 0 -37 37l-26 65l-6 -2l-11 -10 q-111 -111 -282 -110q-180 0 -264 96q-86 98 -86 270zM193 1079q0 10 18 29l240 231q40 41 71 41l8 2q31 0 72 -41l240 -231q18 -18 18 -29q0 -16 -14 -24l-33 -21q-16 -10 -29 -10q-10 0 -43 25l-215 149l-215 -149q-33 -25 -43 -25q-12 0 -28 10l-33 21q-14 8 -14 22z" />
<glyph unicode="&#xfc;" horiz-adv-x="1064" d="M113 346v457q0 10 12 22.5t22 12.5h111q10 0 22.5 -12.5t12.5 -22.5v-457q0 -102 45 -156q47 -55 135 -55q104 0 182 53.5t109 139.5v477q0 10 12 22.5t23 12.5h110q10 0 22.5 -12.5t12.5 -22.5v-770q0 -10 -12 -22.5t-23 -12.5h-84q-23 0 -37 37l-26 65l-6 -2l-11 -10 q-111 -111 -282 -110q-180 0 -264 96q-86 98 -86 270zM225 1108q0 47 33 80t80 33t80 -33t33 -80t-33 -80t-80 -33t-80 33t-33 80zM590 1108q0 47 32.5 80t80 33t80 -33t32.5 -80t-32.5 -80t-80 -33t-80 33t-32.5 80z" />
<glyph unicode="&#xfd;" horiz-adv-x="1003" d="M33 823q0 16 18 17h133q35 0 49 -27l261 -489l43 -107h4l241 596q12 27 43 27h131q16 0 17 -17q0 -8 -10 -35l-517 -1273q-10 -25 -45 -25h-131q-16 0 -16 16q0 8 10 35l193 473l-414 779q-10 18 -10 30zM432 1040q0 8 12 25l207 283q33 45 70 45q29 -1 49 -19l31 -26 q23 -18 22 -48q0 -33 -35 -61l-243 -203q-14 -10 -31 -10h-65q-16 0 -17 14z" />
<glyph unicode="&#xfe;" horiz-adv-x="1095" d="M123 -475v1792q0 10 12 22.5t23 12.5h110q10 0 22.5 -12.5t12.5 -22.5l-2 -567h10l21 18q102 90 264 90q182 0 289 -123q109 -125 108 -317q0 -213 -123 -326q-119 -111 -297 -110q-150 0 -239 69l-27 21h-4v-547q0 -10 -12 -22.5t-23 -12.5h-110q-10 0 -22.5 12.5 t-12.5 22.5zM303 229q102 -96 258 -96q106 0 178 78t72 207q0 131 -68 207q-68 78 -172 77q-96 0 -168 -53q-70 -51 -100 -139v-281z" />
<glyph unicode="&#xff;" horiz-adv-x="1003" d="M33 823q0 16 18 17h133q35 0 49 -27l261 -489l43 -107h4l241 596q12 27 43 27h131q16 0 17 -17q0 -8 -10 -35l-517 -1273q-10 -25 -45 -25h-131q-16 0 -16 16q0 8 10 35l193 473l-414 779q-10 18 -10 30zM231 1112q0 47 33 78q35 31 80 31t80 -31q33 -31 33 -78t-33 -78 q-35 -31 -80 -30.5t-80 30.5q-33 31 -33 78zM596 1112q0 47 33 78q35 31 80 31t79 -31q33 -31 33 -78t-33 -78q-35 -31 -79.5 -30.5t-79.5 30.5q-33 31 -33 78z" />
<glyph unicode="&#x152;" horiz-adv-x="2154" d="M102.5 616.5q-0.5 288.5 190 460.5t473.5 172l-2 6q88 0 178 -20h1077q8 0 18.5 -10.5t10.5 -18.5v-98q0 -8 -10 -18.5t-19 -10.5h-665l-119 8l-4 -8q162 -158 188 -362h539q8 0 18.5 -10.5t10.5 -18.5v-98q0 -8 -10.5 -18.5t-18.5 -10.5h-535q-14 -229 -190 -401l4 -8 q74 8 125 8h680q8 0 18.5 -10.5t10.5 -18.5v-98q0 -8 -10.5 -18.5t-18.5 -10.5h-1098q-96 -18 -178 -18q-285 0 -473 170q-190 172 -190.5 460.5zM281 625q0 -217 139 -351q137 -131 344 -131t344 129q139 129 139 349q0 221 -137 350q-139 129 -346 129v4q-207 0 -344 -129 q-139 -129 -139 -350z" />
<glyph unicode="&#x153;" horiz-adv-x="1826" d="M94 416q0 209 131 325q131 117 332 117q244 0 363 -162h4q119 162 360 162q211 0 326 -110q121 -119 112 -277l-6 -104h-710q12 -102 96 -168q82 -63 203 -64q170 0 276 98q20 20 39 20.5t33 -13.5l37 -47q14 -14 14 -33t-25 -43q-143 -141 -381 -142q-252 0 -376 164h-4 q-115 -164 -361 -164q-203 0 -332 115q-131 117 -131 326zM276 412q0 -131 76 -207q78 -78 205 -78t203 80q78 82 78 207l-4 -2q0 127 -76 204q-78 80 -203 80t-203 -80q-76 -78 -76 -204zM1001 496h531q-16 200 -254 200q-109 0 -184 -51q-78 -53 -93 -149z" />
<glyph unicode="&#x178;" horiz-adv-x="1282" d="M16 1217q0 12 13 12h155q31 0 49 -25l310 -403l88 -125h12q49 72 88 125l309 403q18 25 50 25h155q12 0 12 -12q0 -8 -8 -17l-522 -686v-489q0 -8 -6 -19q-4 -6 -16 -6h-132q-12 0 -16 6q-6 10 -6 19v489l-526 686q-8 8 -9 17zM344 1446q0 47 33 80t80 33t79.5 -33 t32.5 -80t-32.5 -80t-79.5 -33t-80 33t-33 80zM709 1446q0 47 32.5 80t79.5 33t80 -33t33 -80t-33 -80t-80 -33t-79.5 33t-32.5 80z" />
<glyph unicode="&#x2c6;" horiz-adv-x="1705" d="M471 1081q0 10 18 29l240 231q41 41 72 41l8 2q31 0 72 -41l239 -231q18 -18 19 -29q0 -16 -15 -24l-32 -21q-16 -10 -29 -10q-10 0 -43 25l-215 149l-215 -149q-33 -25 -43 -25q-12 0 -29 10l-33 21q-14 8 -14 22z" />
<glyph unicode="&#x2dc;" horiz-adv-x="974" d="M145 1055q0 254 193 254q76 0 135 -47l84 -68q55 -43 84 -43q74 0 74 131q0 27 30 27h62q31 0 31 -27q0 -254 -193 -254q-76 0 -135 47l-84 68q-55 43 -84 43q-74 0 -74 -131q1 -27 -30 -27h-62q-31 0 -31 27z" />
<glyph unicode="&#x2000;" horiz-adv-x="867" />
<glyph unicode="&#x2001;" horiz-adv-x="1735" />
<glyph unicode="&#x2002;" horiz-adv-x="867" />
<glyph unicode="&#x2003;" horiz-adv-x="1735" />
<glyph unicode="&#x2004;" horiz-adv-x="578" />
<glyph unicode="&#x2005;" horiz-adv-x="433" />
<glyph unicode="&#x2006;" horiz-adv-x="289" />
<glyph unicode="&#x2007;" horiz-adv-x="289" />
<glyph unicode="&#x2008;" horiz-adv-x="216" />
<glyph unicode="&#x2009;" horiz-adv-x="347" />
<glyph unicode="&#x200a;" horiz-adv-x="96" />
<glyph unicode="&#x2010;" horiz-adv-x="696" d="M92 410v139h512v-139h-512z" />
<glyph unicode="&#x2011;" horiz-adv-x="696" d="M92 410v139h512v-139h-512z" />
<glyph unicode="&#x2012;" horiz-adv-x="696" d="M92 410v139h512v-139h-512z" />
<glyph unicode="&#x2013;" d="M102 410v139h820v-139h-820z" />
<glyph unicode="&#x2014;" horiz-adv-x="1536" d="M102 410v139h1332v-139h-1332z" />
<glyph unicode="&#x2018;" horiz-adv-x="430" d="M94 940q0 199 154 295q18 12 39 12q14 0 24 -16l21 -33q8 -14 8 -24.5t-8 -12.5q-29 -18 -51 -37q-20 -16 -37 -45q-18 -31 -19 -63v-4q47 0 78 -31t31 -78v-6q0 -47 -31 -78t-78 -31q-57 0 -94 41q-37 39 -37 111z" />
<glyph unicode="&#x2019;" horiz-adv-x="430" d="M90 862q0 10 8 12q29 18 52 37q20 16 36 45q18 31 19 66v4q-47 0 -78 33q-31 35 -31 80v-9q0 45 31 80q31 33 78 33q57 0 94 -39q37 -41 37 -110q0 -197 -154 -293q-18 -12 -39 -13q-14 0 -24 17l-21 33q-8 14 -8 24z" />
<glyph unicode="&#x201a;" horiz-adv-x="430" d="M90 -184.5q0 10.5 8 12.5q29 18 52 37q20 16 36 45q18 31 19 65v5q-47 0 -78 30q-31 35 -31 80v-8q0 45 31 80q31 33 78 33q57 0 94 -39q37 -41 37 -111q0 -197 -154 -291q-18 -12 -39 -12q-14 0 -24 16l-21 33q-8 14 -8 24.5z" />
<glyph unicode="&#x201c;" horiz-adv-x="753" d="M94 934q0 201 154 295q18 12 39 12q14 0 24 -16l21 -33q8 -14 8 -24.5t-8 -12.5q-29 -18 -51 -37q-20 -16 -37 -45q-18 -31 -19 -63v-4q47 0 78 -31t31 -78v-6q0 -47 -31 -78t-78 -31q-57 0 -94 41t-37 111zM418 940q0 199 153 295q18 12 39 12q14 0 25 -16l20 -33 q8 -14 8.5 -24.5t-8.5 -12.5q-29 -18 -51 -37q-20 -16 -37 -45q-18 -31 -18 -63v-4q47 0 77.5 -31t30.5 -78v-6q0 -47 -30.5 -78t-77.5 -31q-57 0 -94 41q-37 39 -37 111z" />
<glyph unicode="&#x201d;" horiz-adv-x="753" d="M90 862q0 10 8 12q29 18 52 37q20 16 36 45q18 31 19 66v4q-47 0 -78 33q-31 35 -31 80v-9q0 45 31 80q31 33 78 33q57 0 94 -39q37 -41 37 -110q0 -197 -154 -293q-18 -12 -39 -13q-14 0 -24 17l-21 33q-8 14 -8 24zM414 853.5q0 10.5 8 12.5q29 18 51 37q20 16 37 45 q18 31 18 66v4q-47 0 -77 33q-31 34 -31 79v-8q0 45 31 80q31 33 77 33q57 0 95 -39q37 -41 36 -111q0 -197 -153 -292q-18 -12 -39 -13q-14 0 -25 17l-20 32q-8 14 -8 24.5z" />
<glyph unicode="&#x201e;" horiz-adv-x="753" d="M90 -184.5q0 10.5 8 12.5q29 18 52 37q20 16 36 45q18 31 19 65v5q-47 0 -78 30q-31 35 -31 80v-8q0 45 31 80q31 33 78 33q57 0 94 -39q37 -41 37 -111q0 -197 -154 -291q-18 -12 -39 -12q-14 0 -24 16l-21 33q-8 14 -8 24.5zM414 -192.5q0 10.5 8 12.5q29 18 51 37 q20 16 37 45q18 31 18 65v4q-47 0 -77 31q-31 35 -31 80v-8q0 45 31 80q31 33 77 32q57 0 95 -39q37 -41 36 -110q0 -197 -153 -291q-18 -12 -39 -12q-14 0 -25 16l-20 33q-8 14 -8 24.5z" />
<glyph unicode="&#x2022;" horiz-adv-x="679" d="M176 512q0 70 47 117t117 47t117 -47t47 -117t-47 -117t-117 -47t-117 47t-47 117z" />
<glyph unicode="&#x2026;" horiz-adv-x="1175" d="M113 90q0 45 30 80q31 33 78 33t78 -33q31 -35 31 -80t-31 -80q-31 -31 -78 -30.5t-78 30.5q-30 35 -30 80zM477 90q0 45 31 80q31 33 78 33t78 -33q31 -35 30.5 -80t-30.5 -80q-31 -31 -78 -30.5t-78 30.5q-31 35 -31 80zM842 90q0 45 30 80q31 33 78 33t78 -33 q31 -35 31 -80t-31 -80q-31 -31 -78 -30.5t-78 30.5q-30 35 -30 80z" />
<glyph unicode="&#x202f;" horiz-adv-x="347" />
<glyph unicode="&#x2039;" horiz-adv-x="548" d="M82 451q0 18 31 55l280 338q12 20 31 20q16 0 25 -8l22 -16q16 -10 16 -25q0 -8 -12 -31l-184 -333l184 -334q12 -23 12 -31q0 -14 -16 -25l-22 -16q-8 -8 -25 -8q-18 0 -31 18l-280 338q-31 38 -31 58z" />
<glyph unicode="&#x203a;" horiz-adv-x="548" d="M61 86q0 8 13 31l184 334l-184 333q-12 23 -13 31q0 14 17 25l22 16q8 8 25 8q18 0 31 -20l280 -338q31 -37 31 -55q0 -20 -31 -58l-280 -338q-12 -18 -31 -18q-16 0 -25 8l-22 16q-16 10 -17 25z" />
<glyph unicode="&#x205f;" horiz-adv-x="433" />
<glyph unicode="&#x20ac;" horiz-adv-x="1419" d="M82 430l29 123h137q-2 14 -2 61.5t2 61.5h-166l31 117h157q53 211 222 331q170 121 399 121q219 0 369 -98q12 -10 12 -21q0 -18 -2 -24l-25 -103q-6 -27 -33 -6q-156 96 -323 97q-154 0 -273 -78q-115 -76 -161 -215h741l-31 -123h-737q-2 -14 -2 -62q0 -49 2 -61h707 l-29 -123h-651q47 -139 161 -215q119 -78 273 -78q156 0 289 109q31 25 51 2l55 -70q27 -29 0 -49q-154 -145 -395 -145q-236 0 -400 116q-170 119 -221 332h-186z" />
<glyph unicode="&#x2122;" horiz-adv-x="1568" d="M41 1268v69q0 14 14 15h598q14 0 15 -15v-69q0 -14 -15 -15h-241v-520q0 -6 -6.5 -12t-10.5 -6h-82q-4 0 -10 6t-6 12v520h-242q-14 0 -14 15zM729 731v604q0 4 6 10.5t10 6.5h62q14 0 20 -11l258 -366h7l258 366q6 11 18 11h59q4 0 10.5 -6.5t6.5 -10.5v-604 q0 -14 -17 -14h-81q-16 0 -17 14v422h-4q-25 -51 -49 -88l-186 -268l-189 268l-53 88h-4v-422q0 -14 -15 -14h-84q-16 0 -16 14z" />
<glyph unicode="&#x25fc;" horiz-adv-x="839" d="M0 0v840h840v-840h-840z" />
<glyph unicode="&#xfb01;" horiz-adv-x="1032" d="M43 711v98q0 8 10 18.5t19 10.5h110v196q0 166 98.5 252t245.5 86q186 0 334 -129q18 -14 18.5 -30.5t-12.5 -30.5l-49 -60q-23 -25 -49 0q-113 94 -231 95q-78 0 -127.5 -43.5t-49.5 -137.5v-196h514q10 0 22.5 -12.5t12.5 -22.5l2 -772q0 -10 -12 -23q-10 -10 -22 -10 h-111q-12 0 -23 10q-12 12 -12 23v649h-369v-649q0 -10 -12 -23q-10 -10 -22 -10h-111q-12 0 -22 10q-12 12 -13 23v649h-110q-8 0 -18.5 10t-10.5 19z" />
<glyph unicode="&#xfb02;" horiz-adv-x="1073" d="M45 709v98q0 8 10.5 18.5t18.5 10.5h110v196q0 166 98.5 252t245.5 86q215 0 387 -82q35 -16 35 -37v-1216q0 -10 -12 -22.5t-23 -12.5h-110q-10 0 -22.5 12.5t-12.5 22.5v1141q-113 41 -233 41q-78 0 -127 -43q-52 -46 -50 -138l5 -200h237q8 0 18.5 -10.5t10.5 -18.5 v-98q0 -8 -10.5 -18.5t-18.5 -10.5h-237v-649q0 -10 -13 -23q-10 -10 -22 -10h-111q-12 0 -22 10q-12 12 -13 23v649h-110q-8 0 -18.5 10t-10.5 19z" />
<glyph unicode="&#xfb03;" horiz-adv-x="1622" d="M43 709v98q0 8 10 18.5t19 10.5h110v196q0 166 98.5 252t245.5 86q80 0 142 -22q29 -12 28 -33q0 -18 -8 -37l-24 -66q-8 -25 -37 -14q-43 14 -95 14q-72 0 -121 -43t-49 -135v-196h410v196q0 166 98.5 252t245.5 86q186 0 334 -129q18 -14 18 -30.5t-12 -30.5l-49 -60 q-23 -25 -49 0q-113 94 -232 95q-78 0 -127 -43.5t-49 -137.5v-196h514q10 0 22.5 -12.5t12.5 -22.5l2 -774q0 -10 -12 -23q-10 -10 -23 -10h-110q-12 0 -23 10q-12 12 -12 23v649h-369v-649q0 -10 -12 -23q-10 -10 -22 -10h-111q-12 0 -23 10q-12 12 -12 23v649h-410v-649 q0 -10 -12 -23q-10 -10 -22 -10h-111q-12 0 -22 10q-12 12 -13 23v649h-110q-8 0 -18.5 10t-10.5 19z" />
<glyph unicode="&#xfb04;" horiz-adv-x="1662" d="M45 707v98q0 8 10.5 18.5t18.5 10.5h110v196q0 166 98.5 252t245.5 86q80 0 142 -22q29 -12 28 -33q0 -18 -8 -37l-24 -66q-8 -25 -37 -14q-43 14 -94 14q-72 0 -121 -43t-49 -135v-196h409v196q0 166 98.5 252t245.5 86q215 0 387 -82q35 -16 35 -37v-1216 q0 -10 -12 -22.5t-23 -12.5h-110q-10 0 -22.5 12.5t-12.5 22.5v1141q-113 41 -234 41q-78 0 -127 -43q-51 -46 -49 -138l4 -202h238q8 0 18.5 -10.5t10.5 -18.5v-98q0 -8 -10.5 -18.5t-18.5 -10.5h-238v-649q0 -10 -12 -23q-14 -10 -22 -10h-111q-8 0 -23 10q-12 12 -12 23 v649h-409v-649q0 -10 -13 -23q-14 -10 -22 -10h-111q-8 0 -22 10q-12 12 -13 23v649h-110q-8 0 -18.5 10t-10.5 19z" />
</font>
</defs>
</svg>
